<!DOCTYPE svg PUBLIC "-//W3C//DTD SVG 20010904//EN" "http://www.w3.org/TR/2001/REC-SVG-20010904/DTD/svg10.dtd">
<svg version="1.0" xmlns="http://www.w3.org/2000/svg" width="1288px" height="1600px" viewBox="0 0 12880 16000" preserveAspectRatio="xMidYMid meet">
<g id="layer101" fill="#32312b" stroke="none">
 <path d="M5190 15992 c0 -4 -57 -6 -127 -4 -95 2 -128 0 -135 -10 -8 -10 -11 -10 -15 0 -5 14 -159 18 -165 4 -1 -5 -16 -12 -31 -16 -19 -4 -26 -3 -22 4 4 7 -26 10 -92 9 -59 0 -90 -4 -78 -8 41 -17 -47 -23 -208 -16 -90 4 -157 4 -154 -1 3 -5 -30 -7 -74 -5 -43 2 -79 -1 -79 -5 0 -5 -58 -8 -130 -6 -71 1 -130 -2 -130 -6 0 -5 -35 -7 -77 -5 -52 3 -73 1 -64 -5 24 -17 -42 -24 -150 -16 -59 4 -100 3 -97 -2 4 -5 -59 -11 -141 -12 -80 -2 -150 -7 -155 -10 -6 -3 -32 -4 -59 -3 -30 2 -47 -1 -43 -7 8 -14 -19 -22 -67 -20 l-42 1 45 7 c29 5 17 6 -35 3 -44 -3 -82 -8 -85 -11 -3 -4 -41 -8 -84 -10 -51 -1 -83 -7 -88 -15 -6 -9 -8 -9 -8 1 0 7 -13 12 -30 12 -16 0 -30 -3 -30 -8 0 -4 -19 -6 -41 -4 -27 3 -39 1 -35 -6 10 -17 -29 -24 -89 -17 -32 4 -55 3 -55 -2 0 -5 -16 -7 -35 -5 -19 2 -35 0 -35 -4 0 -5 -20 -8 -45 -6 -25 2 -53 1 -63 -3 -9 -4 -41 -8 -70 -10 -30 -2 -57 -7 -60 -11 -4 -4 11 -4 33 -1 31 5 36 4 21 -5 -10 -5 -35 -8 -55 -4 -44 7 -161 -13 -161 -28 0 -6 -4 -5 -9 2 -6 10 -23 10 -87 -3 -43 -9 -81 -20 -84 -23 -3 -4 -25 -8 -50 -10 -74 -4 -144 -23 -129 -34 10 -7 8 -8 -7 -3 -12 3 -56 -3 -98 -15 -41 -11 -79 -20 -83 -20 -5 0 -1 -5 7 -11 12 -9 12 -10 -4 -5 -41 14 -218 -77 -252 -129 -9 -13 -12 -30 -8 -36 4 -8 3 -9 -4 -5 -14 9 -26 -35 -17 -63 3 -12 11 -18 17 -15 7 5 8 2 3 -5 -9 -16 45 -73 101 -106 54 -32 131 -58 146 -49 6 4 8 3 4 -4 -3 -6 7 -14 26 -20 131 -39 189 -53 198 -47 5 3 10 1 10 -6 0 -7 13 -10 35 -7 19 2 36 0 37 -4 3 -7 179 -46 208 -45 8 0 82 -12 164 -27 82 -15 168 -26 192 -24 24 2 44 0 44 -3 0 -6 216 -39 253 -39 11 0 16 5 12 13 -4 6 0 4 8 -5 16 -21 67 -24 67 -5 0 8 2 9 8 1 4 -7 35 -15 69 -19 59 -6 62 -8 52 -27 -6 -11 -8 -22 -5 -25 3 -4 1 -13 -6 -20 -9 -11 -9 -17 3 -24 11 -7 11 -9 1 -9 -10 0 -12 -12 -9 -49 6 -55 13 -71 71 -156 40 -58 41 -63 41 -140 0 -93 -18 -140 -105 -271 -67 -100 -163 -291 -164 -326 -1 -14 -4 -24 -8 -22 -8 5 -40 -76 -41 -109 -1 -14 -5 -23 -8 -21 -11 6 -43 -114 -42 -159 0 -16 -3 -24 -7 -17 -7 11 -24 -38 -35 -99 -3 -18 -14 -65 -25 -105 -23 -85 -32 -141 -34 -218 0 -31 -4 -60 -9 -64 -4 -4 -5 8 -2 27 4 29 3 30 -4 9 -14 -39 -13 -72 1 -65 7 4 6 0 -4 -7 -10 -9 -19 -37 -23 -77 -3 -34 -13 -99 -21 -144 -17 -102 -18 -120 -1 -112 6 4 4 0 -5 -8 -21 -16 -24 -57 -5 -57 8 0 7 -3 -3 -10 -10 -6 -14 -29 -15 -78 0 -39 -4 -68 -9 -65 -4 3 -5 -29 -1 -73 4 -46 2 -89 -3 -104 -8 -20 -9 -12 -7 35 l4 60 -9 -50 c-12 -72 -12 -134 0 -115 6 9 10 10 10 3 0 -6 -7 -18 -15 -27 -18 -18 -20 -76 -2 -76 8 0 7 -3 -3 -10 -12 -7 -15 -32 -15 -120 0 -60 -4 -110 -9 -110 -5 0 -6 -50 -2 -115 8 -124 -2 -256 -15 -200 -4 19 -7 -3 -8 -60 0 -66 2 -86 10 -75 8 11 9 8 4 -15 -4 -16 -11 -31 -16 -33 -14 -6 -11 -169 4 -175 9 -4 9 -8 -1 -15 -16 -11 -22 -236 -8 -291 6 -24 5 -32 -3 -27 -8 5 -11 -81 -13 -300 l-3 -308 -45 -12 c-102 -27 -284 -110 -274 -125 3 -5 -3 -6 -12 -2 -13 5 -15 3 -9 -7 5 -8 4 -11 -2 -7 -12 8 -75 -36 -117 -82 -17 -17 -37 -31 -46 -31 -10 0 -32 -5 -49 -11 -25 -9 -30 -14 -19 -21 9 -7 8 -8 -6 -4 -18 6 -146 -30 -146 -41 0 -3 7 -2 16 1 9 3 12 2 9 -5 -4 -6 -14 -8 -22 -4 -29 11 -280 -126 -268 -146 4 -5 3 -9 -2 -8 -4 1 -21 -1 -36 -6 -18 -5 -56 -2 -103 9 -41 9 -89 15 -107 15 -31 -2 -31 -2 8 -10 24 -4 5 -5 -50 -2 -101 6 -123 12 -49 14 27 1 38 4 25 6 -29 6 -183 -14 -190 -25 -3 -4 -22 -8 -41 -10 -19 -1 -37 -7 -38 -12 -2 -6 -8 -8 -13 -5 -16 10 -122 -55 -177 -108 -30 -29 -67 -78 -83 -109 -33 -64 -56 -182 -44 -225 5 -15 7 -32 6 -37 -4 -18 11 -68 18 -57 4 6 7 -4 7 -23 0 -42 61 -167 115 -237 62 -80 121 -139 132 -132 6 3 7 1 4 -4 -4 -6 11 -23 33 -38 22 -15 40 -32 40 -36 0 -5 -19 -18 -41 -30 -65 -33 -179 -154 -221 -234 -82 -158 -116 -312 -113 -505 2 -112 2 -113 -5 -30 -7 79 -7 76 -5 -34 2 -65 7 -121 12 -125 4 -3 9 -30 11 -59 2 -30 19 -95 38 -145 l34 -92 2 -240 2 -240 6 245 c3 157 5 50 5 -295 0 -297 -2 -493 -6 -435 l-5 105 -2 -112 c-1 -63 -6 -115 -12 -118 -6 -4 -7 -11 -4 -17 4 -6 2 -8 -4 -4 -17 10 -134 -128 -176 -209 -22 -42 -39 -90 -39 -106 0 -16 -3 -25 -7 -19 -4 6 -13 -6 -20 -27 -10 -27 -14 -116 -17 -318 -4 -290 6 -413 32 -428 8 -4 15 -16 14 -25 0 -14 -2 -13 -9 3 -14 32 -11 2 4 -46 8 -24 20 -65 26 -91 7 -26 16 -46 20 -43 4 3 7 -1 7 -8 -3 -21 33 -128 41 -123 4 2 8 -8 9 -22 2 -37 133 -293 145 -285 6 3 8 1 4 -5 -8 -13 14 -52 102 -186 112 -170 213 -296 357 -446 59 -61 88 -99 101 -135 37 -102 102 -201 230 -355 128 -153 378 -395 396 -383 7 3 8 1 4 -5 -7 -12 153 -154 165 -146 4 2 11 -1 15 -7 5 -8 2 -10 -7 -5 -17 9 58 -55 81 -69 10 -5 36 -25 60 -42 23 -18 47 -30 53 -26 6 4 7 1 2 -7 -6 -10 -4 -12 9 -7 11 4 15 3 11 -4 -4 -6 3 -13 15 -16 20 -5 22 -10 15 -47 -3 -23 -7 -49 -8 -58 -1 -9 -4 -15 -8 -12 -8 5 -32 -77 -33 -116 -1 -15 -5 -26 -10 -22 -5 3 -7 -5 -4 -16 4 -12 3 -20 -2 -17 -4 2 -13 -17 -20 -43 -6 -26 -18 -67 -26 -91 -7 -24 -11 -47 -8 -52 3 -5 1 -9 -4 -9 -12 0 -44 -118 -36 -132 4 -7 2 -8 -4 -4 -11 7 -13 3 -16 -36 -1 -7 -3 -15 -6 -18 -11 -10 -30 -102 -24 -112 4 -6 2 -8 -4 -4 -9 5 -16 -11 -28 -69 -1 -5 -11 -37 -22 -70 -37 -111 -53 -176 -46 -187 4 -7 3 -8 -4 -4 -11 7 -16 -7 -15 -42 1 -6 -3 -12 -8 -12 -5 0 -9 -9 -9 -21 0 -11 -4 -28 -9 -37 -4 -9 -11 -30 -15 -45 -5 -22 -4 -27 6 -22 7 4 5 0 -4 -7 -17 -14 -29 -51 -32 -95 0 -11 -5 -19 -10 -15 -5 3 -7 -5 -4 -16 4 -12 2 -20 -3 -16 -5 3 -9 3 -9 -1 0 -3 -9 -39 -20 -81 -11 -41 -17 -80 -14 -86 4 -6 3 -8 -3 -5 -6 4 -16 -13 -23 -41 -7 -26 -21 -72 -31 -102 -10 -30 -20 -66 -23 -80 -2 -14 -9 -38 -15 -54 -7 -16 -9 -36 -7 -43 3 -8 1 -11 -4 -8 -6 3 -10 3 -10 -2 0 -4 -9 -39 -20 -78 -10 -38 -16 -73 -13 -79 3 -5 2 -6 -4 -3 -9 6 -44 -104 -47 -150 0 -11 -4 -19 -8 -16 -5 2 -8 2 -8 -2 0 -3 -9 -39 -20 -81 -11 -41 -17 -80 -14 -86 4 -6 3 -8 -3 -5 -13 8 -55 -135 -47 -160 5 -15 4 -16 -6 -3 -10 13 -11 12 -7 -5 2 -11 -2 -26 -8 -32 -18 -17 -29 -117 -15 -142 9 -18 20 -21 69 -21 l57 0 130 147 c71 80 138 156 150 167 21 21 334 374 363 409 9 11 26 29 37 41 74 73 193 219 188 228 -4 6 -3 8 4 4 6 -3 41 28 79 71 38 43 87 98 110 123 22 25 100 113 173 195 131 148 158 177 380 425 61 69 135 153 163 187 29 34 56 62 60 62 5 1 5 -14 1 -32 -11 -50 -15 -78 -17 -129 -1 -26 -5 -50 -9 -53 -4 -4 -4 4 -1 17 3 12 3 20 0 17 -4 -3 -14 -41 -22 -85 -9 -43 -23 -107 -31 -142 -8 -34 -12 -67 -9 -72 3 -6 1 -10 -5 -10 -6 0 -10 -8 -9 -18 1 -9 0 -19 -1 -22 -7 -20 -12 -52 -13 -94 0 -27 -4 -41 -7 -31 -10 28 -45 -143 -43 -210 0 -26 -2 -33 -6 -21 -10 25 -44 -130 -45 -198 0 -28 -3 -41 -6 -30 -5 14 -9 9 -15 -21 -5 -22 -9 -51 -11 -65 -1 -14 -3 -25 -4 -25 -4 0 -11 -45 -17 -102 -9 -96 23 -164 104 -221 18 -13 37 -21 42 -17 5 3 13 0 17 -6 4 -8 3 -9 -4 -5 -7 4 -12 5 -12 2 0 -11 83 -45 93 -39 6 3 7 1 3 -6 -7 -11 53 -44 81 -44 7 0 10 -3 8 -7 -4 -6 205 -110 220 -110 4 0 3 5 -1 12 -5 7 -3 8 5 4 7 -5 10 -11 6 -14 -9 -9 85 -41 103 -35 12 3 13 2 4 -4 -15 -11 108 -56 131 -47 8 3 18 1 22 -5 4 -7 -1 -9 -12 -5 -16 5 -16 4 -2 -5 22 -14 98 -33 132 -34 16 0 23 -3 17 -7 -6 -4 10 -12 37 -19 26 -7 73 -19 104 -28 31 -8 63 -12 69 -8 8 5 11 4 6 -3 -4 -7 11 -13 41 -17 27 -4 84 -16 128 -27 150 -36 362 -34 339 4 -4 6 -3 9 2 5 20 -12 102 61 108 95 1 7 5 18 9 25 12 19 39 226 33 256 -3 15 -1 27 5 27 6 0 9 15 8 32 -4 45 22 248 32 248 4 0 11 -4 14 -10 3 -5 1 -10 -4 -10 -16 0 -14 -117 2 -123 9 -3 11 -44 9 -171 -1 -92 1 -165 5 -163 5 3 8 -19 9 -49 0 -63 33 -117 104 -172 l42 -33 197 1 c221 1 345 11 470 39 47 11 113 24 145 31 43 9 55 15 45 22 -10 7 -8 8 9 5 30 -7 198 33 182 43 -7 4 1 7 17 8 54 1 93 14 93 31 0 12 2 13 9 3 6 -11 10 -10 15 3 4 10 12 15 22 11 23 -9 94 17 94 34 0 12 2 12 8 2 5 -7 16 -10 26 -6 14 5 15 9 4 16 -10 7 -9 8 4 4 36 -11 177 71 162 95 -3 5 0 8 7 7 22 -5 68 101 68 160 1 32 -3 51 -9 47 -11 -7 -24 38 -17 57 3 7 6 0 6 -16 1 -16 4 -27 7 -23 4 3 1 34 -5 69 -6 35 -16 98 -22 140 -6 43 -15 76 -19 73 -3 -2 -5 10 -3 28 2 29 2 30 -6 7 -7 -21 -9 -21 -9 -5 0 11 3 28 7 39 6 15 10 11 21 -23 7 -22 16 -39 19 -37 3 2 7 -12 8 -32 1 -20 7 -38 13 -40 5 -2 8 -8 4 -13 -3 -5 0 -9 6 -9 6 0 9 -4 6 -9 -8 -13 4 -42 15 -35 5 3 6 -2 3 -10 -3 -8 0 -25 6 -38 18 -33 82 -98 92 -92 4 3 8 1 8 -4 0 -16 96 -52 139 -52 22 0 60 8 83 17 104 40 448 324 669 550 188 192 279 309 284 363 1 15 5 32 9 39 14 22 -6 95 -48 176 -55 107 -57 113 -44 121 6 4 8 3 5 -3 -23 -36 190 -53 251 -20 47 26 104 88 137 149 121 231 228 465 219 480 -4 6 -3 8 4 4 13 -8 55 100 46 116 -4 7 -2 8 4 4 7 -4 12 -6 12 -4 0 2 9 27 19 56 11 30 17 61 14 70 -3 12 -2 13 4 4 12 -16 56 109 47 135 -4 13 -3 15 4 4 7 -10 15 4 31 52 11 36 18 73 15 81 -4 10 0 18 10 22 22 8 23 99 1 108 -8 3 -15 11 -15 18 0 9 3 8 10 -2 7 -11 10 -11 10 -2 0 18 -29 73 -51 98 -19 21 -19 21 21 34 90 30 157 117 189 245 7 28 16 66 22 86 5 21 6 45 3 55 -4 15 -4 16 4 5 7 -10 13 2 22 45 7 32 17 74 22 91 5 18 7 43 3 55 -4 17 -4 19 3 9 7 -10 13 2 22 45 6 32 21 96 31 142 11 45 17 87 14 92 -3 6 -2 10 3 10 11 0 26 87 25 150 0 30 2 38 7 25 5 -16 8 -12 15 20 4 22 8 54 10 70 2 17 15 86 29 155 14 69 27 155 28 192 2 38 6 68 9 68 11 0 75 468 65 477 -3 4 -7 -9 -7 -28 -1 -19 -3 -26 -6 -16 -7 27 6 69 18 61 8 -4 10 7 7 35 -2 22 -1 42 3 43 4 2 8 53 10 113 2 61 7 112 11 115 3 3 8 41 11 85 3 52 2 64 -3 35 l-7 -45 -1 47 c-2 52 6 81 19 72 5 -3 9 16 9 41 0 34 -3 44 -12 38 -8 -4 -6 3 3 17 18 29 31 192 18 228 -5 14 -5 22 2 22 7 0 10 31 7 90 -1 50 0 90 5 90 4 0 7 50 7 110 l0 110 41 16 c30 13 37 19 27 26 -10 8 -9 9 3 5 17 -6 169 40 169 51 0 4 12 8 26 8 34 2 137 71 128 86 -4 6 -3 8 3 5 10 -7 52 34 96 94 43 59 108 191 103 206 -3 8 -2 12 3 9 8 -6 18 13 39 79 6 17 13 39 18 49 6 15 4 17 -6 11 -9 -5 -11 -4 -6 4 4 6 11 9 15 6 5 -2 17 23 27 58 28 92 27 90 13 82 -8 -5 -10 -4 -5 4 4 6 11 9 16 6 7 -4 23 43 21 60 -1 3 6 22 14 42 9 20 13 43 10 50 -2 8 -1 12 4 9 5 -3 14 16 20 42 7 26 21 71 31 99 23 61 33 108 32 142 0 14 3 19 7 12 4 -6 26 40 51 106 24 65 67 164 96 219 29 56 50 105 46 109 -4 5 -2 5 5 1 8 -4 20 7 33 31 11 21 39 67 61 103 23 36 68 117 101 180 33 63 68 129 78 145 10 17 19 35 20 40 1 6 12 28 23 50 12 22 22 42 22 45 1 3 24 52 52 110 91 187 105 219 107 244 0 13 4 24 9 23 9 -2 89 181 91 210 0 11 4 19 8 17 10 -6 50 107 44 123 -3 8 -2 12 3 9 10 -7 42 63 44 97 1 14 4 23 6 21 11 -11 64 143 55 158 -4 7 -3 8 4 4 7 -4 17 11 26 41 8 26 33 100 56 163 23 63 43 124 45 135 2 11 12 44 24 72 22 56 33 95 35 130 0 11 5 19 10 15 5 -3 7 5 4 16 -4 12 -2 20 3 16 5 -3 9 -3 9 1 0 3 9 39 20 81 11 41 17 80 14 86 -4 6 -3 8 3 5 11 -7 35 66 37 113 1 15 5 26 10 22 5 -3 7 5 4 16 -4 14 -2 20 5 15 6 -4 8 2 5 15 -4 12 -2 20 3 16 5 -3 10 3 10 13 3 42 7 61 18 96 7 20 9 42 5 48 -5 8 -3 9 6 4 10 -6 12 -3 8 13 -3 12 -3 22 1 24 4 2 21 62 38 133 45 187 53 232 47 252 -4 13 -3 14 4 5 9 -14 35 109 36 175 1 17 5 29 10 25 5 -3 6 9 3 27 -4 20 -3 30 3 26 6 -3 10 3 10 15 0 14 -4 19 -12 15 -7 -4 -5 0 6 9 10 8 16 21 13 29 -3 8 -1 19 3 23 5 5 10 39 12 76 2 36 7 63 12 61 5 -3 7 10 4 30 -2 20 0 33 4 31 4 -3 8 7 8 21 0 18 -4 24 -12 20 -7 -4 -5 0 6 9 12 9 17 23 13 36 -3 11 -1 22 3 25 7 5 10 35 14 147 0 20 5 34 10 30 5 -3 7 18 3 49 -3 33 -2 46 3 34 7 -16 9 -11 9 20 1 29 -2 36 -9 25 -6 -9 -10 -10 -10 -3 0 6 6 18 13 25 20 20 31 127 15 146 -8 9 -8 13 -2 9 14 -8 30 167 19 205 -5 18 -4 20 4 8 8 -11 11 0 11 43 0 37 5 64 14 73 10 10 16 10 18 2 2 -6 27 -12 60 -12 31 -1 54 -4 51 -8 -6 -11 122 -10 192 2 33 6 79 12 103 15 23 2 50 9 60 15 16 11 16 11 -1 6 -11 -4 -16 -2 -12 5 4 5 15 7 25 4 24 -8 132 33 124 47 -4 7 -2 8 4 4 16 -10 94 32 86 46 -4 6 -3 8 3 5 15 -10 118 69 184 140 120 130 252 373 233 430 -4 13 -3 14 4 5 7 -11 11 -7 16 14 11 44 19 96 20 131 1 17 4 30 7 28 13 -8 0 353 -15 425 -9 41 -16 77 -16 80 0 3 -5 -2 -11 -10 -9 -13 -10 -13 -6 2 14 43 -70 222 -163 348 -107 143 -328 337 -355 312 -5 -4 -5 -2 -2 5 9 14 -80 66 -97 56 -6 -3 -8 -2 -3 2 4 5 -14 19 -40 32 -56 27 -56 27 -48 11 4 -7 0 -5 -8 4 -18 23 -89 48 -119 42 -13 -2 -8 1 10 8 17 6 32 15 32 19 0 5 6 6 14 3 8 -3 52 2 98 10 47 9 99 16 116 16 18 0 32 5 32 11 0 5 4 7 10 4 5 -3 27 -3 47 1 32 6 35 8 18 16 -15 6 -11 7 13 3 19 -3 52 -1 75 4 23 5 69 15 102 22 48 9 56 13 40 21 -16 6 -14 7 10 4 36 -5 157 23 149 35 -3 5 3 6 12 2 12 -4 15 -3 10 5 -4 7 -2 10 6 7 19 -7 114 32 110 45 -1 6 2 9 7 5 12 -7 53 17 94 54 25 23 27 31 27 96 0 69 -1 72 -37 105 -48 44 -81 63 -95 54 -7 -4 -8 -3 -4 4 6 11 -6 16 -26 13 -5 0 -8 3 -8 8 0 10 -56 25 -85 23 -16 -2 -17 0 -5 8 8 5 12 10 7 10 -4 0 -42 9 -83 20 -42 12 -86 18 -98 15 -17 -5 -18 -4 -6 4 8 6 12 11 8 11 -3 0 -64 11 -134 25 -69 14 -129 23 -132 20 -3 -3 5 -5 18 -5 13 0 21 -3 17 -6 -9 -10 -59 5 -52 16 5 9 -75 22 -150 24 -24 0 -41 4 -39 7 5 8 -96 22 -104 14 -3 -3 8 -5 24 -6 16 0 23 -3 16 -6 -19 -7 -64 6 -57 17 3 6 -2 10 -12 10 -10 0 -61 5 -113 12 -52 6 -133 11 -180 12 -66 1 -84 4 -82 15 2 10 -7 12 -38 9 -22 -2 -40 0 -40 4 0 5 -19 8 -42 7 -24 -1 -134 9 -246 22 -160 18 -205 20 -211 10 -6 -9 -11 -8 -21 4 -15 18 -80 21 -80 3 0 -10 -2 -10 -8 -1 -5 8 -45 13 -112 15 -58 2 -107 6 -110 9 -3 4 -52 9 -110 12 -63 2 -83 2 -50 -3 l55 -7 -55 -1 c-68 -2 -107 7 -88 20 8 6 -13 8 -59 6 -40 -2 -73 0 -73 4 0 5 -59 7 -130 6 -72 -2 -130 1 -130 5 0 5 -36 7 -80 5 -44 -2 -80 1 -80 6 0 4 -69 5 -153 1 -155 -7 -243 0 -202 16 12 4 -19 8 -78 8 -66 1 -96 -2 -92 -9 4 -7 -3 -8 -22 -4 -15 4 -29 11 -31 16 -6 13 -172 10 -172 -3 0 -8 -4 -8 -15 1 -10 8 -51 11 -135 8 -66 -1 -120 0 -120 4 0 4 -799 8 -1775 8 -976 0 -1775 -4 -1775 -8z m5875 -137 c6 -2 -10 -4 -35 -4 -25 0 -51 3 -59 8 -13 8 69 5 94 -4z m-8651 -863 c2 -4 -13 -6 -35 -4 -21 2 -39 6 -39 8 0 7 69 4 74 -4z m9198 -1546 c10 -1 21 -6 25 -11 5 -4 1 -5 -7 -1 -8 4 -6 1 4 -6 86 -58 116 -112 96 -173 -18 -54 -62 -85 -121 -85 l-49 0 0 146 c0 135 1 146 18 139 9 -4 25 -8 34 -9z m21 -293 c-13 -2 -35 -2 -50 0 -16 2 -5 4 22 4 28 0 40 -2 28 -4z m-10925 -3350 c-10 -2 -28 -2 -40 0 -13 2 -5 4 17 4 22 1 32 -1 23 -4z m8173 -5275 c-3 -21 -6 -26 -9 -15 -3 17 3 47 11 47 2 0 1 -15 -2 -32z m-4214 -3775 c-3 -10 -5 -2 -5 17 0 19 2 27 5 18 2 -10 2 -26 0 -35z m2071 -210 c-16 -2 -40 -2 -55 0 -16 2 -3 4 27 4 30 0 43 -2 28 -4z m-2121 -245 c-2 -13 -4 -5 -4 17 -1 22 1 32 4 23 2 -10 2 -28 0 -40z m-403 -256 c3 -5 -8 -6 -25 -4 -16 2 -29 6 -29 8 0 8 49 4 54 -4z m1296 4 c0 -2 -13 -6 -29 -8 -17 -2 -28 -1 -25 4 5 8 54 12 54 4z"/>
 <path d="M4373 15963 c26 -2 67 -2 90 0 23 2 2 3 -48 3 -49 0 -68 -1 -42 -3z"/>
 <path d="M9473 15963 c26 -2 67 -2 90 0 23 2 2 3 -48 3 -49 0 -68 -1 -42 -3z"/>
 <path d="M3508 15913 c18 -2 45 -2 60 0 15 2 0 4 -33 4 -33 0 -45 -2 -27 -4z"/>
 <path d="M2403 15813 c9 -2 25 -2 35 0 9 3 1 5 -18 5 -19 0 -27 -2 -17 -5z"/>
 <path d="M11493 15813 c9 -2 25 -2 35 0 9 3 1 5 -18 5 -19 0 -27 -2 -17 -5z"/>
 <path d="M12743 13855 c0 -44 2 -61 4 -37 2 23 2 59 0 80 -2 20 -4 1 -4 -43z"/>
 <path d="M2143 11710 c0 -41 2 -58 4 -37 2 20 2 54 0 75 -2 20 -4 3 -4 -38z"/>
 <path d="M4693 485 c0 -44 2 -61 4 -37 2 23 2 59 0 80 -2 20 -4 1 -4 -43z"/>
 </g>
<g id="layer102" fill="#674831" stroke="none">
 <path d="M5318 15993 c23 -2 61 -2 85 0 23 2 4 4 -43 4 -47 0 -66 -2 -42 -4z"/>
 <path d="M8528 15993 c23 -2 61 -2 85 0 23 2 4 4 -43 4 -47 0 -66 -2 -42 -4z"/>
 <path d="M4413 15963 c15 -2 37 -2 50 0 12 2 0 4 -28 4 -27 0 -38 -2 -22 -4z"/>
 <path d="M9463 15963 c15 -2 39 -2 55 0 15 2 2 4 -28 4 -30 0 -43 -2 -27 -4z"/>
 <path d="M3533 15913 c9 -2 25 -2 35 0 9 3 1 5 -18 5 -19 0 -27 -2 -17 -5z"/>
 <path d="M4160 15624 c-119 -41 -190 -177 -160 -305 l12 -51 54 7 c85 10 249 85 567 258 92 50 167 95 167 99 0 4 -134 8 -297 8 -242 -1 -307 -4 -343 -16z"/>
 <path d="M6850 15633 c-373 -9 -841 -44 -1050 -79 -113 -19 -260 -56 -312 -78 l-38 -16 0 -1453 c0 -798 -4 -1457 -8 -1463 -16 -24 -51 -35 -74 -23 -13 6 -25 14 -28 16 -3 3 -7 677 -10 1498 l-5 1494 -21 28 c-29 39 -74 63 -131 70 -68 8 -163 -32 -469 -197 -428 -231 -553 -282 -684 -282 -41 0 -83 -2 -92 -5 -37 -10 -10 -96 50 -161 27 -29 36 -32 89 -32 143 0 393 107 649 276 44 30 85 54 91 54 23 0 63 -42 63 -66 0 -32 -27 -57 -148 -132 -221 -138 -478 -246 -614 -259 -54 -5 -68 -9 -63 -20 17 -47 -44 -345 -106 -513 -52 -141 -116 -338 -149 -460 -90 -330 -179 -858 -195 -1150 -8 -137 -10 -144 -41 -158 -20 -10 -31 -10 -52 0 -25 12 -27 18 -30 88 -10 217 77 783 182 1191 42 161 75 265 171 539 82 234 116 459 80 526 -10 19 -22 34 -27 34 -12 0 -52 -26 -128 -84 -257 -195 -449 -401 -636 -682 -83 -125 -238 -420 -284 -540 -76 -198 -95 -250 -126 -349 -210 -661 -316 -1520 -327 -2659 l-2 -248 75 7 c41 4 118 11 170 16 130 12 469 11 615 -1 378 -33 675 -91 1012 -201 117 -38 172 -59 348 -132 229 -96 510 -262 780 -463 599 -444 1161 -653 1755 -654 126 0 305 15 416 35 102 19 129 19 148 -1 22 -21 20 -67 -4 -89 -36 -33 -311 -67 -550 -68 -361 -1 -672 60 -1017 201 -40 16 -70 26 -67 21 9 -15 190 -118 297 -169 190 -91 369 -144 542 -161 61 -6 120 -12 132 -15 43 -8 52 -63 17 -99 -36 -36 -287 -5 -484 59 -199 65 -384 155 -575 281 -141 93 -242 173 -437 347 -363 324 -665 519 -1068 689 -319 134 -741 241 -1095 279 -364 39 -837 26 -1129 -31 -113 -21 -273 -72 -302 -95 -19 -15 -18 -15 1 -10 69 17 316 30 535 29 200 0 289 -5 413 -22 366 -49 595 -122 922 -294 17 -9 86 -32 155 -51 415 -114 755 -352 975 -681 247 -369 357 -793 358 -1375 1 -463 -74 -959 -222 -1462 -15 -54 -24 -98 -20 -98 5 0 9 4 9 8 0 5 33 53 74 108 327 441 702 664 1075 641 354 -23 660 -254 837 -633 92 -196 158 -444 185 -694 16 -147 16 -471 0 -620 -55 -501 -219 -915 -460 -1159 -324 -326 -790 -394 -1381 -201 -491 161 -778 483 -831 933 -12 103 -7 318 10 405 10 52 0 54 -23 4 -30 -62 -145 -252 -214 -351 -297 -428 -726 -747 -1223 -910 -293 -95 -487 -125 -804 -125 -188 0 -255 4 -363 22 -224 37 -406 94 -582 182 -136 68 -219 128 -319 229 l-94 95 6 -49 c10 -68 72 -193 144 -290 171 -230 438 -382 807 -460 404 -86 1010 -44 1426 100 355 122 728 371 961 642 102 118 98 114 132 111 45 -4 66 -43 47 -89 -21 -51 -308 -333 -435 -427 -365 -270 -750 -422 -1215 -478 -69 -8 -152 -18 -184 -22 l-59 -7 94 -47 c222 -110 475 -281 564 -380 26 -29 60 -78 76 -109 l28 -57 128 -31 c299 -72 605 -105 973 -105 286 0 438 11 680 49 1198 186 2242 862 2958 1913 254 372 490 859 611 1260 93 306 210 791 199 824 -5 15 -146 -100 -213 -175 -71 -78 -138 -180 -172 -260 -33 -76 -49 -97 -80 -97 -27 0 -63 33 -63 58 0 28 35 112 77 184 154 266 445 491 774 598 109 35 140 55 198 125 76 92 141 237 226 510 101 320 147 464 181 554 62 165 65 267 11 385 -30 64 -129 172 -205 223 -332 220 -939 248 -1568 72 -66 -19 -122 -29 -136 -26 -34 9 -51 49 -36 82 13 29 88 56 294 104 272 63 376 75 654 75 225 1 268 -2 370 -22 400 -79 654 -244 752 -491 l26 -64 44 69 c131 205 342 624 496 984 435 1022 720 2095 821 3095 37 364 43 496 44 880 0 566 -41 988 -143 1489 -56 274 -126 414 -289 576 -165 164 -362 262 -583 290 -115 14 -1751 14 -1855 -1 -103 -14 -214 -58 -300 -118 -38 -27 -132 -115 -210 -195 -78 -81 -170 -170 -205 -198 -147 -119 -312 -158 -515 -122 -29 6 -33 3 -47 -31 -9 -20 -47 -69 -86 -109 -39 -40 -70 -81 -70 -92 0 -29 58 -81 110 -99 121 -43 265 -39 408 9 199 68 319 167 625 516 201 228 272 299 347 345 98 60 137 66 405 63 l239 -3 16 -27 c13 -25 13 -31 0 -55 l-16 -28 -244 -5 c-222 -5 -249 -7 -290 -26 -72 -34 -149 -103 -281 -255 -311 -359 -419 -462 -576 -555 -201 -119 -399 -159 -588 -119 -38 8 -71 15 -72 15 -10 0 0 -293 12 -370 52 -344 229 -626 510 -812 190 -126 404 -203 690 -248 103 -17 134 -25 148 -42 23 -27 22 -53 -4 -79 -19 -19 -28 -21 -88 -15 -192 20 -448 91 -620 172 -358 170 -592 428 -705 779 -58 181 -69 256 -71 481 -2 198 -3 202 -27 235 -40 53 -48 74 -48 124 0 61 19 94 103 183 l70 74 -81 77 c-111 104 -137 155 -137 276 0 77 4 98 27 148 15 32 37 71 48 88 l21 29 -38 -2 c-21 -1 -85 -3 -143 -5z m2854 -49 c21 -20 20 -63 -1 -86 -14 -15 -32 -18 -121 -18 -117 0 -142 11 -142 61 0 51 20 59 140 59 85 0 112 -3 124 -16z m-4681 -205 c48 -26 50 -67 5 -104 -73 -62 -134 -69 -156 -20 -17 37 0 66 61 103 59 36 60 36 90 21z m4221 -2311 c21 -30 20 -54 -4 -78 -18 -18 -33 -20 -170 -20 -137 0 -152 2 -170 20 -24 24 -25 48 -4 78 15 21 21 22 174 22 153 0 159 -1 174 -22z m-3794 -868 l0 -60 -60 0 -60 0 0 60 0 60 60 0 60 0 0 -60z m-758 -2484 c281 -160 486 -391 668 -754 141 -281 261 -702 295 -1033 6 -60 5 -69 -14 -88 -26 -26 -52 -27 -80 -3 -16 13 -23 36 -31 97 -106 801 -440 1421 -905 1677 -73 39 -80 47 -83 77 -4 38 20 71 52 71 12 0 56 -20 98 -44z m2888 -1095 l0 -58 -37 -7 c-21 -3 -75 -6 -120 -6 l-83 0 0 59 0 60 38 4 c20 2 74 4 120 5 l82 2 0 -59z m-1920 -1056 l0 -85 -60 0 -60 0 0 85 0 85 60 0 60 0 0 -85z"/>
 <path d="M7251 15629 c-106 -31 -181 -133 -181 -247 0 -107 53 -186 160 -235 62 -29 72 -30 200 -31 l136 -1 79 39 c72 36 98 58 270 230 105 105 207 203 227 216 21 14 38 28 38 33 0 11 -889 7 -929 -4z"/>
 <path d="M3042 15419 c-79 -15 -146 -70 -181 -149 -28 -61 -28 -163 -1 -207 17 -29 25 -33 64 -33 102 0 326 95 502 214 108 72 227 163 232 177 5 11 -559 10 -616 -2z"/>
 <path d="M3800 15354 c-36 -20 -105 -68 -155 -107 -121 -95 -236 -167 -380 -237 -164 -80 -239 -102 -347 -103 l-87 0 -11 -30 c-14 -41 -13 -73 4 -106 21 -39 37 -50 92 -60 95 -18 255 26 406 111 87 49 111 49 137 0 23 -44 -3 -71 -134 -137 -127 -64 -261 -105 -348 -105 l-47 0 0 -77 c0 -98 -37 -193 -129 -336 -214 -336 -331 -742 -427 -1482 -37 -287 -96 -1019 -81 -1005 2 3 12 88 21 190 45 492 152 1050 274 1425 244 747 620 1295 1142 1660 l78 55 -14 48 c-22 72 -11 118 42 170 l44 42 -7 60 -8 60 -65 -36z"/>
 <path d="M11359 14935 c-3 -2 12 -89 33 -192 61 -309 108 -670 126 -987 l7 -129 40 -12 c155 -48 276 -147 305 -249 27 -99 -4 -212 -76 -276 -59 -51 -109 -70 -191 -70 -39 0 -74 -4 -77 -9 -23 -36 48 -60 205 -68 213 -12 437 70 584 213 129 125 223 305 265 504 14 64 17 117 15 215 -5 188 -41 320 -129 478 -180 320 -539 542 -936 577 -129 11 -164 12 -171 5z"/>
 <path d="M11717 13222 l-18 -37 20 25 c12 14 21 31 21 38 0 19 -4 15 -23 -26z"/>
 <path d="M11748 12793 c12 -2 30 -2 40 0 9 3 -1 5 -23 4 -22 0 -30 -2 -17 -4z"/>
 <path d="M2143 11700 c0 -25 2 -35 4 -22 2 12 2 32 0 45 -2 12 -4 2 -4 -23z"/>
 <path d="M2155 9980 c-386 -33 -642 -98 -852 -216 -73 -41 -81 -50 -51 -59 65 -20 287 -114 473 -200 272 -126 392 -174 485 -192 l75 -15 140 60 c533 228 977 252 1333 73 334 -168 533 -525 574 -1026 10 -123 9 -145 -5 -178 -18 -41 -73 -73 -111 -63 -12 3 -69 41 -129 85 -493 366 -1128 586 -1607 557 -448 -28 -787 -178 -957 -426 -96 -141 -163 -364 -163 -546 l0 -51 69 -6 c41 -3 104 -19 157 -39 167 -63 285 -162 351 -295 37 -75 38 -80 38 -184 l0 -107 70 25 c103 37 253 118 358 195 446 327 667 421 997 422 242 1 395 -41 696 -189 186 -92 244 -110 314 -94 129 29 214 189 229 429 22 361 -62 755 -226 1060 -294 547 -790 865 -1509 966 -129 18 -599 27 -749 14z"/>
 <path d="M632 9660 c-88 -23 -126 -41 -175 -81 -70 -58 -101 -155 -85 -269 34 -255 312 -505 653 -589 353 -87 652 -27 1100 222 118 66 132 74 402 244 98 61 202 124 230 140 53 28 73 51 31 33 -13 -5 -63 -23 -113 -40 -86 -30 -210 -80 -305 -122 -90 -41 -250 -9 -485 97 -52 24 -188 86 -250 115 -58 27 -147 67 -210 95 -328 142 -620 199 -793 155z"/>
 <path d="M4150 9555 c0 -3 14 -18 30 -32 46 -38 182 -204 243 -296 66 -99 138 -232 167 -307 11 -30 27 -68 34 -85 13 -27 39 -112 81 -255 48 -167 79 -549 56 -695 -22 -143 -30 -175 -59 -244 -47 -111 -115 -191 -198 -232 -41 -19 -64 -24 -139 -24 -102 0 -136 10 -280 86 -49 26 -128 64 -175 84 -47 20 -94 40 -105 46 -47 22 -219 60 -309 68 -166 16 -318 -7 -487 -75 -150 -59 -278 -137 -519 -314 -103 -75 -245 -158 -331 -192 -30 -12 -68 -27 -85 -35 -43 -18 -210 -61 -259 -67 -22 -2 -83 -12 -135 -22 -72 -13 -149 -18 -315 -18 l-221 -1 33 -75 c98 -228 127 -586 68 -839 -58 -249 -115 -365 -237 -483 -59 -58 -94 -83 -136 -99 -104 -39 -229 -24 -310 38 l-35 26 5 -24 c32 -142 82 -339 88 -350 7 -11 17 -11 55 -1 47 13 263 16 328 6 61 -11 138 -63 171 -118 63 -102 41 -247 -48 -319 -68 -56 -84 -61 -209 -67 l-117 -5 68 -135 c37 -74 84 -161 105 -193 20 -31 37 -59 37 -61 0 -17 119 -172 166 -217 249 -236 683 -373 1169 -370 218 1 319 13 537 61 177 40 497 161 608 231 14 9 61 38 104 64 71 44 170 113 250 177 58 45 252 246 309 319 126 161 270 393 378 611 78 156 198 429 244 553 20 55 43 114 50 130 35 76 179 552 216 715 68 296 131 690 145 910 30 474 -35 946 -176 1275 -33 78 -105 218 -127 251 -5 6 -26 37 -47 70 -119 179 -382 395 -611 501 -33 15 -63 29 -67 31 -5 2 -8 1 -8 -3z m-590 -2161 c192 -41 300 -92 482 -230 79 -61 238 -253 238 -289 0 -7 6 -18 14 -24 22 -18 81 -175 104 -276 50 -215 39 -384 -41 -620 -49 -148 -126 -266 -253 -391 -174 -172 -348 -262 -575 -299 -276 -44 -571 25 -786 185 -54 40 -198 182 -228 224 -107 152 -162 271 -195 425 -38 178 -35 332 11 516 28 114 124 303 202 401 249 308 651 456 1027 378z m1448 -204 c88 -54 96 -166 18 -239 -34 -32 -119 -41 -164 -17 -40 21 -70 64 -77 112 -8 49 27 120 70 145 42 24 112 24 153 -1z m-1263 -2147 c85 -45 125 -108 132 -207 5 -67 3 -81 -21 -130 -27 -56 -71 -97 -131 -122 -50 -20 -709 -21 -759 0 -84 35 -156 141 -156 230 0 94 58 188 143 231 l52 26 350 -3 c337 -3 352 -4 390 -25z"/>
 <path d="M3200 7319 c-376 -66 -671 -334 -786 -714 -25 -83 -28 -104 -28 -265 -1 -153 2 -185 22 -260 48 -177 141 -336 269 -461 133 -131 269 -208 448 -255 84 -22 122 -26 235 -27 115 0 150 4 235 27 106 28 234 84 313 137 68 47 197 174 247 244 61 85 119 207 152 316 26 88 28 105 28 274 -1 166 -3 187 -28 270 -59 195 -176 376 -327 502 -90 76 -260 164 -375 194 -92 24 -314 34 -405 18z m382 -98 c259 -67 482 -253 593 -494 160 -346 99 -743 -157 -1021 -106 -116 -237 -198 -398 -252 -80 -27 -95 -28 -260 -28 -165 0 -180 1 -260 28 -246 82 -433 241 -542 461 -69 138 -98 261 -98 414 0 262 82 462 265 647 143 144 288 224 472 259 103 19 282 13 385 -14z"/>
 <path d="M3255 7160 c-332 -50 -599 -287 -685 -606 -138 -512 229 -1029 745 -1049 92 -4 95 -3 36 5 -339 48 -593 274 -692 615 -34 119 -32 305 5 428 73 243 216 416 433 525 64 33 191 72 230 72 13 0 23 5 23 10 0 11 -21 11 -95 0z"/>
 <path d="M3505 6218 c-49 -27 -71 -92 -42 -128 49 -63 131 -66 179 -6 62 75 -48 183 -137 134z"/>
 <path d="M3705 6066 c-52 -23 -85 -71 -85 -122 0 -120 168 -175 258 -83 80 81 24 206 -97 216 -26 2 -59 -3 -76 -11z"/>
 <path d="M669 8647 c-179 -75 -277 -231 -324 -517 -50 -295 39 -587 237 -782 53 -52 153 -128 169 -128 4 0 7 22 7 49 0 187 209 426 428 491 l42 12 6 92 c12 160 58 349 108 449 l19 38 -28 51 c-32 59 -126 156 -157 162 -11 3 -59 11 -106 20 -47 8 -125 30 -175 47 -121 42 -157 45 -226 16z"/>
 <path d="M183 7960 c0 -25 2 -35 4 -22 2 12 2 32 0 45 -2 12 -4 2 -4 -23z"/>
 <path d="M284 7310 c0 -118 2 -167 3 -107 2 59 2 155 0 215 -1 59 -3 10 -3 -108z"/>
 <path d="M428 7233 c0 -43 -2 -99 -2 -125 -1 -54 4 -59 24 -22 8 14 36 44 63 66 l48 41 -57 59 c-32 32 -62 58 -66 58 -4 0 -9 -35 -10 -77z"/>
 <path d="M1144 7210 c-22 -5 -58 -16 -80 -25 -37 -16 -38 -17 -19 -31 34 -25 88 -36 215 -41 134 -5 260 13 289 42 13 13 10 16 -23 30 -20 9 -60 20 -88 25 -60 12 -235 11 -294 0z"/>
 <path d="M578 7097 c-52 -42 -147 -169 -148 -196 0 -8 18 10 39 41 47 65 129 125 196 142 l49 12 -38 22 c-20 12 -39 22 -41 22 -2 0 -28 -19 -57 -43z"/>
 <path d="M973 6959 c120 -139 197 -427 183 -679 -11 -213 -61 -385 -150 -518 -53 -80 -87 -112 -159 -148 -102 -52 -214 -37 -305 42 -36 30 -42 33 -42 16 0 -22 91 -112 140 -137 19 -10 62 -20 96 -23 52 -4 71 0 118 21 138 63 251 251 312 517 21 91 29 364 15 475 -17 131 -57 270 -105 365 -37 75 -45 84 -81 96 -59 20 -60 18 -22 -27z"/>
 <path d="M6084 6760 c-390 -53 -789 -421 -1083 -1000 -127 -250 -224 -525 -271 -768 -125 -646 92 -1059 670 -1275 203 -76 420 -117 618 -117 281 0 491 81 672 260 218 216 353 531 427 1000 28 180 25 628 -5 805 -52 302 -140 542 -265 724 -77 112 -217 236 -334 295 -122 61 -303 93 -429 76z"/>
 <path d="M283 6520 c0 -47 2 -66 4 -42 2 23 2 61 0 85 -2 23 -4 4 -4 -43z"/>
 <path d="M214 6368 l-29 -33 33 29 c30 28 37 36 29 36 -2 0 -16 -15 -33 -32z"/>
 <path d="M256 6193 c-142 -211 -168 -543 -71 -917 79 -304 270 -671 497 -952 77 -96 168 -197 173 -192 1 2 10 18 19 36 l17 32 -57 96 c-144 244 -276 577 -368 924 -69 261 -146 783 -146 988 0 28 -4 52 -9 52 -5 0 -29 -30 -55 -67z"/>
 <path d="M780 6231 c-17 -32 -12 -96 8 -114 10 -10 23 -17 29 -17 21 0 43 38 43 74 0 50 -15 76 -45 76 -14 0 -29 -8 -35 -19z"/>
 <path d="M871 6105 c-11 -14 -22 -39 -26 -55 -9 -42 12 -107 41 -127 24 -15 27 -15 52 4 48 36 54 141 11 184 -26 26 -54 24 -78 -6z"/>
 <path d="M8833 5552 c-119 -342 -171 -465 -304 -729 -140 -277 -270 -492 -423 -701 -418 -573 -970 -1057 -1556 -1365 -41 -22 -84 -45 -95 -51 -79 -49 -451 -202 -605 -250 -47 -14 -98 -30 -115 -35 -236 -75 -572 -137 -930 -171 -139 -14 -705 -4 -853 14 -161 19 -464 74 -541 97 -23 7 -43 10 -44 8 -14 -18 -77 -120 -90 -144 -8 -16 -41 -149 -72 -295 -31 -146 -67 -314 -80 -375 -13 -60 -35 -162 -49 -225 -26 -122 -49 -231 -92 -425 -44 -200 -43 -198 -29 -231 9 -23 37 -45 116 -91 336 -195 797 -353 1221 -418 107 -17 108 -16 138 5 33 24 46 61 54 160 12 146 27 288 36 340 5 30 11 82 14 115 14 162 27 285 36 335 5 30 11 82 14 115 14 162 27 285 36 335 5 30 11 84 14 120 13 158 26 190 76 190 15 0 34 -8 43 -17 15 -18 16 -32 32 -350 3 -51 7 -137 10 -190 3 -54 7 -129 10 -168 2 -38 7 -126 11 -195 3 -69 7 -156 9 -195 2 -38 7 -126 10 -195 16 -360 18 -371 56 -409 37 -37 88 -42 264 -24 307 31 572 88 850 183 66 22 142 48 169 57 69 24 116 70 116 116 0 20 -18 144 -41 274 -23 131 -47 276 -54 323 -15 92 -48 292 -64 380 -61 337 -90 524 -85 546 14 53 84 55 111 3 7 -13 80 -220 162 -459 82 -239 170 -496 196 -570 26 -74 57 -164 69 -199 24 -73 67 -111 124 -111 51 0 48 -2 287 189 151 121 225 189 388 356 141 144 213 236 220 282 7 38 -7 68 -153 348 -133 253 -224 428 -307 592 -72 141 -76 153 -64 177 8 14 26 28 43 31 34 8 59 -11 105 -79 15 -22 47 -66 70 -96 24 -30 54 -71 68 -90 14 -19 48 -64 75 -100 27 -36 61 -81 75 -100 15 -19 56 -73 91 -120 36 -47 74 -99 85 -117 28 -45 94 -69 143 -53 20 6 47 26 60 43 26 35 174 327 226 447 18 41 41 93 51 114 11 22 19 43 19 48 0 4 11 31 24 60 13 29 33 78 44 108 11 30 36 100 56 154 20 55 36 117 36 139 0 43 -19 64 -308 336 -105 99 -132 130 -132 151 0 70 58 82 135 28 258 -181 279 -193 327 -193 40 0 52 5 82 34 20 19 36 40 36 47 0 7 16 70 35 140 60 218 113 450 170 739 42 214 45 227 55 299 5 38 17 107 26 155 8 47 19 118 24 156 5 39 15 122 24 185 39 294 72 610 64 610 -1 0 -26 -66 -55 -148z"/>
 <path d="M1655 3174 c64 -59 243 -197 294 -227 l30 -18 25 81 c15 45 26 87 26 94 0 9 -18 16 -47 21 -69 9 -270 60 -334 84 l-54 20 60 -55z"/>
 <path d="M2150 3060 c-19 -35 21 -171 86 -295 50 -94 108 -204 134 -250 35 -62 150 -291 183 -366 50 -110 81 -239 78 -316 -1 -18 2 -33 7 -33 10 0 77 70 157 164 28 32 60 68 71 80 42 41 115 137 125 164 15 39 18 129 7 192 -13 73 -80 211 -143 297 -23 31 -156 165 -215 217 -83 73 -306 161 -417 165 -54 2 -63 -1 -73 -19z"/>
 <path d="M2064 2783 c-4 -21 -14 -60 -24 -88 -10 -27 -27 -81 -38 -120 -12 -38 -34 -113 -51 -167 -54 -177 -36 -338 64 -563 10 -22 26 -58 36 -80 9 -22 29 -67 44 -100 15 -33 32 -71 37 -85 6 -14 14 -33 19 -42 10 -20 26 -80 42 -163 7 -32 16 -58 20 -58 8 2 131 138 229 253 70 82 89 203 56 350 -20 88 -22 94 -57 172 -12 26 -21 51 -21 55 0 10 -101 214 -120 243 -10 14 -37 63 -62 110 -25 47 -68 128 -97 181 -28 53 -51 103 -51 112 0 33 -19 26 -26 -10z"/>
 <path d="M3014 2678 c62 -101 108 -226 108 -295 0 -18 3 -33 8 -33 4 0 30 25 59 56 58 64 58 71 7 143 -32 45 -177 171 -197 171 -6 0 1 -19 15 -42z"/>
 <path d="M1814 1953 c-4 -21 -14 -60 -24 -88 -23 -68 -55 -170 -70 -225 -7 -25 -23 -77 -36 -117 -48 -146 -43 -225 27 -433 21 -63 44 -150 51 -194 l12 -78 35 39 c20 21 59 65 86 97 28 32 70 80 95 107 43 46 100 163 100 206 0 51 -54 242 -83 298 -9 17 -28 57 -43 90 -14 33 -35 80 -46 105 -11 25 -24 54 -29 65 -25 58 -49 128 -49 145 0 35 -19 22 -26 -17z"/>
 <path d="M1541 1038 c-43 -133 -59 -183 -71 -228 -7 -25 -21 -72 -31 -105 -10 -33 -30 -100 -45 -150 -14 -49 -37 -121 -50 -159 -27 -75 -25 -93 5 -55 10 13 34 40 52 59 19 20 57 62 84 94 28 32 58 67 69 77 10 9 24 28 30 41 7 13 23 41 36 63 41 73 37 219 -10 335 -10 25 -21 57 -24 73 -4 15 -10 27 -14 27 -4 0 -18 -33 -31 -72z"/>
 <path d="M4693 495 c0 -22 2 -30 4 -17 2 12 2 30 0 40 -3 9 -5 -1 -4 -23z"/>
 </g>
<g id="layer103" fill="#ca5460" stroke="none">
 <path d="M4167 15626 c-128 -46 -198 -176 -167 -307 l13 -51 42 5 c64 9 128 33 265 98 159 76 480 251 480 261 0 4 -134 8 -297 8 -223 -1 -307 -4 -336 -14z"/>
 <path d="M6850 15633 c-373 -9 -841 -44 -1050 -79 -113 -19 -260 -56 -312 -78 l-38 -16 0 -1453 c0 -798 -4 -1457 -8 -1463 -16 -24 -51 -35 -74 -23 -13 6 -25 14 -28 16 -3 3 -7 677 -10 1498 l-5 1494 -21 28 c-29 39 -74 63 -131 70 -68 8 -163 -32 -469 -197 -428 -231 -553 -282 -684 -282 -41 0 -83 -2 -92 -5 -37 -10 -10 -96 50 -161 27 -29 36 -32 89 -32 143 0 393 107 649 276 44 30 85 54 91 54 23 0 63 -42 63 -66 0 -32 -27 -57 -148 -132 -221 -138 -478 -246 -614 -259 -54 -5 -68 -9 -63 -20 17 -47 -44 -345 -106 -513 -52 -141 -116 -338 -149 -460 -90 -330 -179 -858 -195 -1150 -8 -137 -10 -144 -41 -158 -20 -10 -31 -10 -52 0 -25 12 -27 18 -30 88 -10 217 77 783 182 1191 42 161 75 265 171 539 82 234 116 459 80 526 -10 19 -22 34 -27 34 -12 0 -52 -26 -128 -84 -257 -195 -449 -401 -636 -682 -83 -125 -238 -420 -284 -540 -76 -198 -95 -250 -126 -349 -210 -661 -316 -1520 -327 -2659 l-2 -248 75 7 c41 4 118 11 170 16 130 12 469 11 615 -1 378 -33 675 -91 1012 -201 117 -38 172 -59 348 -132 229 -96 510 -262 780 -463 599 -444 1161 -653 1755 -654 126 0 305 15 416 35 102 19 129 19 148 -1 22 -21 20 -67 -4 -89 -36 -33 -311 -67 -550 -68 -361 -1 -672 60 -1017 201 -40 16 -70 26 -67 21 9 -15 190 -118 297 -169 190 -91 369 -144 542 -161 61 -6 120 -12 132 -15 43 -8 52 -63 17 -99 -36 -36 -287 -5 -484 59 -199 65 -384 155 -575 281 -141 93 -242 173 -437 347 -363 324 -665 519 -1068 689 -319 134 -741 241 -1095 279 -364 39 -837 26 -1129 -31 -113 -21 -273 -72 -302 -95 -19 -15 -18 -15 1 -10 69 17 316 30 535 29 200 0 289 -5 413 -22 366 -49 595 -122 922 -294 17 -9 86 -32 155 -51 415 -114 755 -352 975 -681 247 -369 357 -793 358 -1375 1 -463 -74 -959 -222 -1462 -15 -54 -24 -98 -20 -98 5 0 9 4 9 8 0 5 33 53 74 108 327 441 702 664 1075 641 354 -23 660 -254 837 -633 92 -196 158 -444 185 -694 16 -147 16 -471 0 -620 -55 -501 -219 -915 -460 -1159 -324 -326 -790 -394 -1381 -201 -491 161 -778 483 -831 933 -12 103 -7 318 10 405 10 52 0 54 -23 4 -30 -62 -145 -252 -214 -351 -297 -428 -726 -747 -1223 -910 -293 -95 -487 -125 -804 -125 -188 0 -255 4 -363 22 -224 37 -406 94 -582 182 -136 68 -219 128 -319 229 l-94 95 6 -49 c10 -68 72 -193 144 -290 171 -230 438 -382 807 -460 404 -86 1010 -44 1426 100 355 122 728 371 961 642 102 118 98 114 132 111 45 -4 66 -43 47 -89 -21 -51 -308 -333 -435 -427 -365 -270 -750 -422 -1215 -478 -69 -8 -152 -18 -184 -22 l-59 -7 94 -47 c222 -110 475 -281 564 -380 26 -29 60 -78 76 -109 l28 -57 128 -31 c299 -72 605 -105 973 -105 286 0 438 11 680 49 1198 186 2242 862 2958 1913 254 372 490 859 611 1260 93 306 210 791 199 824 -5 15 -146 -100 -213 -175 -71 -78 -138 -180 -172 -260 -33 -76 -49 -97 -80 -97 -27 0 -63 33 -63 58 0 28 35 112 77 184 154 266 445 491 774 598 109 35 140 55 198 125 76 92 141 237 226 510 101 320 147 464 181 554 62 165 65 267 11 385 -30 64 -129 172 -205 223 -332 220 -939 248 -1568 72 -66 -19 -122 -29 -136 -26 -34 9 -51 49 -36 82 13 29 88 56 294 104 272 63 376 75 654 75 225 1 268 -2 370 -22 400 -79 654 -244 752 -491 l26 -64 44 69 c131 205 342 624 496 984 435 1022 720 2095 821 3095 37 364 43 496 44 880 0 566 -41 988 -143 1489 -56 274 -126 414 -289 576 -165 164 -362 262 -583 290 -115 14 -1751 14 -1855 -1 -103 -14 -214 -58 -300 -118 -38 -27 -132 -115 -210 -195 -78 -81 -170 -170 -205 -198 -147 -119 -312 -158 -515 -122 -29 6 -33 3 -47 -31 -9 -20 -47 -69 -86 -109 -39 -40 -70 -81 -70 -92 0 -29 58 -81 110 -99 121 -43 265 -39 408 9 199 68 319 167 625 516 201 228 272 299 347 345 98 60 137 66 405 63 l239 -3 16 -27 c13 -25 13 -31 0 -55 l-16 -28 -244 -5 c-222 -5 -249 -7 -290 -26 -72 -34 -149 -103 -281 -255 -311 -359 -419 -462 -576 -555 -201 -119 -399 -159 -588 -119 -38 8 -71 15 -72 15 -10 0 0 -293 12 -370 52 -344 229 -626 510 -812 190 -126 404 -203 690 -248 103 -17 134 -25 148 -42 23 -27 22 -53 -4 -79 -19 -19 -28 -21 -88 -15 -192 20 -448 91 -620 172 -358 170 -592 428 -705 779 -58 181 -69 256 -71 481 -2 198 -3 202 -27 235 -40 53 -48 74 -48 124 0 61 19 94 103 183 l70 74 -81 77 c-111 104 -137 155 -137 276 0 77 4 98 27 148 15 32 37 71 48 88 l21 29 -38 -2 c-21 -1 -85 -3 -143 -5z m2854 -49 c21 -20 20 -63 -1 -86 -14 -15 -32 -18 -121 -18 -117 0 -142 11 -142 61 0 51 20 59 140 59 85 0 112 -3 124 -16z m-4681 -205 c48 -26 50 -67 5 -104 -73 -62 -134 -69 -156 -20 -17 37 0 66 61 103 59 36 60 36 90 21z m4221 -2311 c21 -30 20 -54 -4 -78 -18 -18 -33 -20 -170 -20 -137 0 -152 2 -170 20 -24 24 -25 48 -4 78 15 21 21 22 174 22 153 0 159 -1 174 -22z m-3794 -868 l0 -60 -60 0 -60 0 0 60 0 60 60 0 60 0 0 -60z m-758 -2484 c281 -160 486 -391 668 -754 141 -281 261 -702 295 -1033 6 -60 5 -69 -14 -88 -26 -26 -52 -27 -80 -3 -16 13 -23 36 -31 97 -106 801 -440 1421 -905 1677 -73 39 -80 47 -83 77 -4 38 20 71 52 71 12 0 56 -20 98 -44z m2888 -1095 l0 -58 -37 -7 c-21 -3 -75 -6 -120 -6 l-83 0 0 59 0 60 38 4 c20 2 74 4 120 5 l82 2 0 -59z m-1920 -1056 l0 -85 -60 0 -60 0 0 85 0 85 60 0 60 0 0 -85z"/>
 <path d="M7251 15629 c-175 -51 -240 -276 -120 -413 66 -75 198 -113 357 -103 71 4 96 11 160 43 69 33 98 58 267 229 105 105 207 202 227 216 21 13 38 27 38 32 0 11 -889 7 -929 -4z"/>
 <path d="M3042 15419 c-79 -15 -146 -70 -181 -149 -28 -61 -28 -163 -1 -207 17 -29 25 -33 64 -33 102 0 327 96 506 216 104 70 223 162 228 175 5 11 -559 10 -616 -2z"/>
 <path d="M3800 15354 c-36 -20 -105 -68 -155 -107 -121 -95 -236 -167 -380 -237 -164 -80 -239 -102 -347 -103 l-87 0 -11 -30 c-14 -41 -13 -73 4 -106 21 -39 37 -50 92 -60 95 -18 255 26 406 111 87 49 111 49 137 0 23 -44 -3 -71 -134 -137 -127 -64 -261 -105 -348 -105 l-47 0 0 -77 c0 -98 -37 -193 -129 -336 -214 -336 -331 -742 -427 -1482 -37 -287 -96 -1019 -81 -1005 2 3 12 88 21 190 45 492 152 1050 274 1425 244 747 620 1295 1142 1660 l78 55 -14 48 c-22 72 -11 118 42 170 l44 42 -7 60 -8 60 -65 -36z"/>
 <path d="M11359 14935 c-3 -2 12 -89 33 -192 61 -309 108 -670 126 -987 l7 -129 40 -12 c146 -43 268 -138 300 -234 35 -105 6 -223 -71 -291 -59 -51 -109 -70 -191 -70 -70 0 -73 -1 -73 -24 0 -21 7 -26 53 -36 257 -58 552 20 732 196 115 112 205 273 252 452 36 134 38 343 5 476 -48 191 -139 354 -277 491 -204 205 -472 329 -763 355 -131 11 -166 12 -173 5z"/>
 <path d="M690 9670 c-288 -35 -399 -244 -270 -506 46 -95 147 -210 246 -280 184 -131 483 -216 706 -200 172 12 359 65 558 158 98 46 297 156 385 213 120 78 424 265 449 276 14 7 26 16 26 20 0 12 -210 -63 -350 -124 -113 -49 -116 -49 -195 -44 -106 7 -260 62 -555 200 -410 191 -625 265 -830 287 -52 5 -97 9 -100 9 -3 -1 -34 -5 -70 -9z"/>
 <path d="M4207 9496 c352 -376 541 -838 560 -1371 11 -305 -44 -519 -165 -642 -72 -75 -128 -98 -237 -98 -104 0 -100 -1 -330 111 -275 134 -426 176 -630 176 -289 0 -513 -96 -915 -391 -184 -136 -365 -222 -569 -271 -212 -51 -336 -65 -567 -64 l-210 0 33 -76 c67 -155 96 -319 96 -540 0 -139 -4 -185 -26 -291 -45 -217 -113 -362 -224 -480 -132 -140 -280 -170 -436 -89 -49 26 -58 28 -54 13 3 -10 22 -88 42 -174 20 -86 40 -161 44 -168 6 -9 19 -9 52 -2 48 12 272 14 332 5 20 -4 61 -21 89 -38 165 -98 155 -349 -16 -439 -33 -17 -63 -22 -158 -25 l-117 -4 35 -76 c84 -185 255 -453 340 -533 197 -185 530 -318 896 -358 122 -14 394 -14 513 -1 269 29 566 115 800 230 518 255 859 628 1176 1285 304 631 506 1296 596 1966 25 185 27 233 28 524 0 335 -5 398 -56 649 -29 144 -100 350 -164 478 -165 327 -421 578 -740 723 l-78 36 60 -65z m-626 -2106 c466 -99 806 -497 844 -987 9 -108 -8 -257 -42 -372 -116 -403 -447 -700 -854 -766 -559 -90 -1089 275 -1209 835 -54 251 -25 480 90 715 218 445 691 677 1171 575z m1427 -200 c88 -54 96 -166 18 -239 -34 -32 -119 -41 -164 -17 -39 20 -68 61 -77 108 -9 50 23 121 67 148 43 26 113 26 156 0z m-1273 -2144 c55 -25 110 -81 131 -132 8 -19 14 -62 14 -97 0 -107 -56 -191 -155 -233 -50 -20 -709 -21 -759 0 -84 35 -156 141 -156 230 0 94 58 188 142 230 l52 26 340 0 c336 0 342 -1 391 -24z"/>
 <path d="M3255 7160 c-332 -50 -599 -287 -685 -606 -138 -512 229 -1029 745 -1049 92 -4 95 -3 36 5 -339 48 -593 274 -692 615 -34 119 -32 305 5 428 73 243 216 416 433 525 64 33 191 72 230 72 13 0 23 5 23 10 0 11 -21 11 -95 0z"/>
 <path d="M3505 6218 c-49 -27 -71 -92 -42 -128 49 -63 131 -66 179 -6 62 75 -48 183 -137 134z"/>
 <path d="M3705 6066 c-52 -23 -85 -71 -85 -122 0 -120 168 -175 258 -83 80 81 24 206 -97 216 -26 2 -59 -3 -76 -11z"/>
 <path d="M430 7190 l0 -119 64 62 65 62 -57 58 c-31 31 -60 57 -64 57 -4 0 -8 -54 -8 -120z"/>
 <path d="M1144 7210 c-22 -5 -58 -16 -80 -25 -37 -16 -38 -17 -19 -31 34 -25 88 -36 215 -41 134 -5 260 13 289 42 13 13 10 16 -23 30 -20 9 -60 20 -88 25 -60 12 -235 11 -294 0z"/>
 <path d="M780 6231 c-17 -32 -12 -96 8 -114 10 -10 23 -17 29 -17 21 0 43 38 43 74 0 50 -15 76 -45 76 -14 0 -29 -8 -35 -19z"/>
 <path d="M871 6105 c-11 -14 -22 -39 -26 -55 -9 -42 12 -107 41 -127 24 -15 27 -15 52 4 48 36 54 141 11 184 -26 26 -54 24 -78 -6z"/>
 <path d="M8861 5628 c-185 -585 -511 -1207 -869 -1658 -185 -232 -463 -519 -667 -689 -691 -573 -1447 -902 -2325 -1012 -211 -27 -663 -37 -877 -20 -262 21 -506 58 -676 103 -43 11 -79 19 -80 17 -32 -46 -88 -140 -96 -160 -5 -15 -39 -165 -76 -335 -37 -170 -91 -421 -121 -559 -30 -137 -68 -315 -85 -395 -17 -80 -35 -160 -40 -179 -15 -62 7 -92 118 -154 349 -197 765 -344 1169 -412 131 -23 148 -23 179 -10 19 7 39 24 45 37 5 13 50 387 99 831 96 873 91 847 151 847 56 0 58 -10 75 -336 8 -164 22 -418 30 -564 8 -146 19 -364 25 -485 13 -291 14 -298 53 -336 l31 -32 146 6 c340 14 853 134 1146 267 42 19 74 66 74 109 0 12 -33 216 -74 454 -182 1059 -179 1038 -167 1063 5 13 22 26 36 30 58 14 57 18 289 -657 120 -349 225 -646 234 -660 20 -35 62 -59 105 -59 87 0 590 434 804 693 82 100 95 129 81 183 -4 16 -89 184 -188 374 -99 190 -217 418 -262 507 -78 153 -82 163 -68 187 15 30 55 44 79 29 9 -5 138 -171 286 -369 299 -397 310 -408 386 -385 53 16 71 44 186 276 111 225 234 518 313 745 38 108 34 117 -143 289 -84 81 -180 173 -214 206 -66 61 -78 91 -49 130 31 43 74 22 336 -164 55 -39 72 -46 112 -46 38 0 52 5 77 29 36 34 42 53 120 371 151 607 236 1121 317 1908 3 31 4 57 2 57 -2 0 -14 -33 -27 -72z"/>
 <path d="M1655 3174 c64 -59 243 -197 294 -227 l30 -18 25 81 c15 45 26 87 26 94 0 9 -18 16 -47 21 -69 9 -270 60 -334 84 l-54 20 60 -55z"/>
 <path d="M2168 3074 c-13 -4 -18 -16 -18 -45 0 -78 49 -196 190 -454 201 -368 265 -521 293 -699 l12 -78 155 176 c85 96 164 192 175 213 33 64 33 177 -1 281 -50 155 -185 328 -354 454 -89 66 -109 76 -223 117 -83 29 -192 46 -229 35z"/>
 <path d="M2070 2797 c0 -3 -32 -111 -72 -239 -70 -229 -72 -235 -72 -343 0 -138 22 -214 136 -470 90 -203 127 -305 135 -376 3 -27 9 -49 13 -49 4 0 40 37 81 83 198 218 221 257 220 386 0 170 -57 312 -314 789 -111 205 -127 233 -127 219z"/>
 <path d="M3004 2698 c39 -55 88 -170 109 -257 l23 -93 48 56 c40 47 47 61 41 85 -8 36 -89 128 -165 186 -65 50 -80 56 -56 23z"/>
 <path d="M1820 1965 c0 -3 -34 -115 -75 -250 -41 -135 -79 -272 -85 -305 -14 -78 -1 -154 56 -333 25 -78 48 -163 51 -189 3 -27 9 -48 14 -48 4 0 63 61 130 136 151 170 173 213 167 323 -6 86 -32 168 -109 341 -62 141 -129 306 -129 320 0 5 -4 10 -10 10 -5 0 -10 -2 -10 -5z"/>
 <path d="M1485 853 c-43 -142 -91 -303 -107 -358 -17 -55 -34 -113 -39 -128 -5 -17 -4 -27 1 -25 14 4 217 236 251 285 45 65 66 157 52 235 -12 71 -65 248 -74 248 -3 0 -41 -116 -84 -257z"/>
 </g>
<g id="layer104" fill="#f2d16b" stroke="none">
 <path d="M4167 15626 c-128 -46 -198 -176 -167 -307 l13 -51 42 5 c64 9 128 33 265 98 159 76 480 251 480 261 0 4 -134 8 -297 8 -223 -1 -307 -4 -336 -14z"/>
 <path d="M6850 15633 c-373 -9 -841 -44 -1050 -79 -113 -19 -260 -56 -312 -78 l-38 -16 0 -1453 c0 -798 -4 -1457 -8 -1463 -16 -24 -51 -35 -74 -23 -13 6 -25 14 -28 16 -3 3 -7 677 -10 1498 l-5 1494 -21 28 c-29 39 -74 63 -131 70 -68 8 -163 -32 -469 -197 -428 -231 -553 -282 -684 -282 -41 0 -83 -2 -92 -5 -37 -10 -10 -96 50 -161 27 -29 36 -32 89 -32 143 0 393 107 649 276 44 30 85 54 91 54 23 0 63 -42 63 -66 0 -32 -27 -57 -148 -132 -221 -138 -478 -246 -614 -259 -54 -5 -68 -9 -63 -20 17 -47 -44 -345 -106 -513 -52 -141 -116 -338 -149 -460 -90 -330 -179 -858 -195 -1150 -8 -137 -10 -144 -41 -158 -20 -10 -31 -10 -52 0 -25 12 -27 18 -30 88 -10 217 77 783 182 1191 42 161 75 265 171 539 82 234 116 459 80 526 -10 19 -22 34 -27 34 -12 0 -52 -26 -128 -84 -257 -195 -449 -401 -636 -682 -83 -125 -238 -420 -284 -540 -76 -198 -95 -250 -126 -349 -210 -661 -316 -1520 -327 -2659 l-2 -248 75 7 c41 4 118 11 170 16 130 12 469 11 615 -1 378 -33 675 -91 1012 -201 117 -38 172 -59 348 -132 229 -96 510 -262 780 -463 599 -444 1161 -653 1755 -654 126 0 305 15 416 35 102 19 129 19 148 -1 22 -21 20 -67 -4 -89 -36 -33 -311 -67 -550 -68 -361 -1 -672 60 -1017 201 -40 16 -70 26 -67 21 9 -15 190 -118 297 -169 190 -91 369 -144 542 -161 61 -6 120 -12 132 -15 43 -8 52 -63 17 -99 -36 -36 -287 -5 -484 59 -199 65 -384 155 -575 281 -141 93 -242 173 -437 347 -363 324 -665 519 -1068 689 -319 134 -741 241 -1095 279 -364 39 -837 26 -1129 -31 -113 -21 -273 -72 -302 -95 -19 -15 -18 -15 1 -10 69 17 316 30 535 29 200 0 289 -5 413 -22 366 -49 595 -122 922 -294 17 -9 86 -32 155 -51 415 -114 755 -352 975 -681 247 -369 357 -793 358 -1375 1 -463 -74 -959 -222 -1462 -15 -54 -24 -98 -20 -98 5 0 9 4 9 8 0 5 33 53 74 108 327 441 702 664 1075 641 354 -23 660 -254 837 -633 92 -196 158 -444 185 -694 16 -147 16 -471 0 -620 -55 -501 -219 -915 -460 -1159 -324 -326 -790 -394 -1381 -201 -491 161 -778 483 -831 933 -12 103 -7 318 10 405 10 52 0 54 -23 4 -30 -62 -145 -252 -214 -351 -297 -428 -726 -747 -1223 -910 -293 -95 -487 -125 -804 -125 -188 0 -255 4 -363 22 -224 37 -406 94 -582 182 -136 68 -219 128 -319 229 l-94 95 6 -49 c10 -68 72 -193 144 -290 171 -230 438 -382 807 -460 404 -86 1010 -44 1426 100 355 122 728 371 961 642 102 118 98 114 132 111 45 -4 66 -43 47 -89 -21 -51 -308 -333 -435 -427 -365 -270 -750 -422 -1215 -478 -69 -8 -152 -18 -184 -22 l-59 -7 94 -47 c222 -110 475 -281 564 -380 26 -29 60 -78 76 -109 l28 -57 128 -31 c299 -72 605 -105 973 -105 286 0 438 11 680 49 1198 186 2242 862 2958 1913 254 372 490 859 611 1260 93 306 210 791 199 824 -5 15 -146 -100 -213 -175 -71 -78 -138 -180 -172 -260 -33 -76 -49 -97 -80 -97 -27 0 -63 33 -63 58 0 28 35 112 77 184 154 266 445 491 774 598 109 35 140 55 198 125 76 92 141 237 226 510 101 320 147 464 181 554 62 165 65 267 11 385 -30 64 -129 172 -205 223 -332 220 -939 248 -1568 72 -66 -19 -122 -29 -136 -26 -34 9 -51 49 -36 82 13 29 88 56 294 104 272 63 376 75 654 75 225 1 268 -2 370 -22 400 -79 654 -244 752 -491 l26 -64 44 69 c131 205 342 624 496 984 435 1022 720 2095 821 3095 37 364 43 496 44 880 0 566 -41 988 -143 1489 -56 274 -126 414 -289 576 -165 164 -362 262 -583 290 -115 14 -1751 14 -1855 -1 -103 -14 -214 -58 -300 -118 -38 -27 -132 -115 -210 -195 -78 -81 -170 -170 -205 -198 -147 -119 -312 -158 -515 -122 -29 6 -33 3 -47 -31 -9 -20 -47 -69 -86 -109 -39 -40 -70 -81 -70 -92 0 -29 58 -81 110 -99 121 -43 265 -39 408 9 199 68 319 167 625 516 201 228 272 299 347 345 98 60 137 66 405 63 l239 -3 16 -27 c13 -25 13 -31 0 -55 l-16 -28 -244 -5 c-222 -5 -249 -7 -290 -26 -72 -34 -149 -103 -281 -255 -311 -359 -419 -462 -576 -555 -201 -119 -399 -159 -588 -119 -38 8 -71 15 -72 15 -10 0 0 -293 12 -370 52 -344 229 -626 510 -812 190 -126 404 -203 690 -248 103 -17 134 -25 148 -42 23 -27 22 -53 -4 -79 -19 -19 -28 -21 -88 -15 -192 20 -448 91 -620 172 -358 170 -592 428 -705 779 -58 181 -69 256 -71 481 -2 198 -3 202 -27 235 -40 53 -48 74 -48 124 0 61 19 94 103 183 l70 74 -81 77 c-111 104 -137 155 -137 276 0 77 4 98 27 148 15 32 37 71 48 88 l21 29 -38 -2 c-21 -1 -85 -3 -143 -5z m2854 -49 c21 -20 20 -63 -1 -86 -14 -15 -32 -18 -121 -18 -117 0 -142 11 -142 61 0 51 20 59 140 59 85 0 112 -3 124 -16z m-4681 -205 c48 -26 50 -67 5 -104 -73 -62 -134 -69 -156 -20 -17 37 0 66 61 103 59 36 60 36 90 21z m4221 -2311 c21 -30 20 -54 -4 -78 -18 -18 -33 -20 -170 -20 -137 0 -152 2 -170 20 -24 24 -25 48 -4 78 15 21 21 22 174 22 153 0 159 -1 174 -22z m-3794 -868 l0 -60 -60 0 -60 0 0 60 0 60 60 0 60 0 0 -60z m-758 -2484 c281 -160 486 -391 668 -754 141 -281 261 -702 295 -1033 6 -60 5 -69 -14 -88 -26 -26 -52 -27 -80 -3 -16 13 -23 36 -31 97 -106 801 -440 1421 -905 1677 -73 39 -80 47 -83 77 -4 38 20 71 52 71 12 0 56 -20 98 -44z m2888 -1095 l0 -58 -37 -7 c-21 -3 -75 -6 -120 -6 l-83 0 0 59 0 60 38 4 c20 2 74 4 120 5 l82 2 0 -59z m-1920 -1056 l0 -85 -60 0 -60 0 0 85 0 85 60 0 60 0 0 -85z"/>
 <path d="M7251 15629 c-175 -51 -240 -276 -120 -413 66 -75 198 -113 357 -103 71 4 96 11 160 43 69 33 98 58 267 229 105 105 207 202 227 216 21 13 38 27 38 32 0 11 -889 7 -929 -4z"/>
 <path d="M3042 15419 c-79 -15 -146 -70 -181 -149 -28 -61 -28 -163 -1 -207 17 -29 25 -33 64 -33 102 0 327 96 506 216 104 70 223 162 228 175 5 11 -559 10 -616 -2z"/>
 <path d="M3800 15354 c-36 -20 -105 -68 -155 -107 -121 -95 -236 -167 -380 -237 -164 -80 -239 -102 -347 -103 l-87 0 -11 -30 c-14 -41 -13 -73 4 -106 21 -39 37 -50 92 -60 95 -18 255 26 406 111 87 49 111 49 137 0 23 -44 -3 -71 -134 -137 -127 -64 -261 -105 -348 -105 l-47 0 0 -77 c0 -98 -37 -193 -129 -336 -214 -336 -331 -742 -427 -1482 -37 -287 -96 -1019 -81 -1005 2 3 12 88 21 190 45 492 152 1050 274 1425 244 747 620 1295 1142 1660 l78 55 -14 48 c-22 72 -11 118 42 170 l44 42 -7 60 -8 60 -65 -36z"/>
 <path d="M11359 14935 c-3 -2 12 -89 33 -192 61 -309 108 -670 126 -987 l7 -129 40 -12 c146 -43 268 -138 300 -234 35 -105 6 -223 -71 -291 -59 -51 -109 -70 -191 -70 -70 0 -73 -1 -73 -24 0 -21 7 -26 53 -36 257 -58 552 20 732 196 115 112 205 273 252 452 36 134 38 343 5 476 -48 191 -139 354 -277 491 -204 205 -472 329 -763 355 -131 11 -166 12 -173 5z"/>
 <path d="M4207 9496 c352 -376 541 -838 560 -1371 11 -305 -44 -519 -165 -642 -72 -75 -128 -98 -237 -98 -104 0 -100 -1 -330 111 -275 134 -426 176 -630 176 -289 0 -513 -96 -915 -391 -184 -136 -365 -222 -569 -271 -212 -51 -336 -65 -567 -64 l-210 0 33 -76 c67 -155 96 -319 96 -540 0 -139 -4 -185 -26 -291 -45 -217 -113 -362 -224 -480 -132 -140 -280 -170 -436 -89 -49 26 -58 28 -54 13 3 -10 22 -88 42 -174 20 -86 40 -161 44 -168 6 -9 19 -9 52 -2 48 12 272 14 332 5 20 -4 61 -21 89 -38 165 -98 155 -349 -16 -439 -33 -17 -63 -22 -158 -25 l-117 -4 35 -76 c84 -185 255 -453 340 -533 197 -185 530 -318 896 -358 122 -14 394 -14 513 -1 269 29 566 115 800 230 518 255 859 628 1176 1285 304 631 506 1296 596 1966 25 185 27 233 28 524 0 335 -5 398 -56 649 -29 144 -100 350 -164 478 -165 327 -421 578 -740 723 l-78 36 60 -65z m-626 -2106 c466 -99 806 -497 844 -987 9 -108 -8 -257 -42 -372 -116 -403 -447 -700 -854 -766 -559 -90 -1089 275 -1209 835 -54 251 -25 480 90 715 218 445 691 677 1171 575z m1427 -200 c88 -54 96 -166 18 -239 -34 -32 -119 -41 -164 -17 -39 20 -68 61 -77 108 -9 50 23 121 67 148 43 26 113 26 156 0z m-1273 -2144 c55 -25 110 -81 131 -132 8 -19 14 -62 14 -97 0 -107 -56 -191 -155 -233 -50 -20 -709 -21 -759 0 -84 35 -156 141 -156 230 0 94 58 188 142 230 l52 26 340 0 c336 0 342 -1 391 -24z"/>
 <path d="M3255 7160 c-332 -50 -599 -287 -685 -606 -138 -512 229 -1029 745 -1049 92 -4 95 -3 36 5 -339 48 -593 274 -692 615 -34 119 -32 305 5 428 73 243 216 416 433 525 64 33 191 72 230 72 13 0 23 5 23 10 0 11 -21 11 -95 0z"/>
 <path d="M3505 6218 c-49 -27 -71 -92 -42 -128 49 -63 131 -66 179 -6 62 75 -48 183 -137 134z"/>
 <path d="M3705 6066 c-52 -23 -85 -71 -85 -122 0 -120 168 -175 258 -83 80 81 24 206 -97 216 -26 2 -59 -3 -76 -11z"/>
 <path d="M430 7190 l0 -119 64 62 65 62 -57 58 c-31 31 -60 57 -64 57 -4 0 -8 -54 -8 -120z"/>
 <path d="M1144 7210 c-22 -5 -58 -16 -80 -25 -37 -16 -38 -17 -19 -31 34 -25 88 -36 215 -41 134 -5 260 13 289 42 13 13 10 16 -23 30 -20 9 -60 20 -88 25 -60 12 -235 11 -294 0z"/>
 <path d="M780 6231 c-17 -32 -12 -96 8 -114 10 -10 23 -17 29 -17 21 0 43 38 43 74 0 50 -15 76 -45 76 -14 0 -29 -8 -35 -19z"/>
 <path d="M871 6105 c-11 -14 -22 -39 -26 -55 -9 -42 12 -107 41 -127 24 -15 27 -15 52 4 48 36 54 141 11 184 -26 26 -54 24 -78 -6z"/>
 <path d="M1655 3174 c64 -59 243 -197 294 -227 l30 -18 25 81 c15 45 26 87 26 94 0 9 -18 16 -47 21 -69 9 -270 60 -334 84 l-54 20 60 -55z"/>
 <path d="M2168 3074 c-13 -4 -18 -16 -18 -45 0 -78 49 -196 190 -454 201 -368 265 -521 293 -699 l12 -78 155 176 c85 96 164 192 175 213 33 64 33 177 -1 281 -50 155 -185 328 -354 454 -89 66 -109 76 -223 117 -83 29 -192 46 -229 35z"/>
 <path d="M2070 2797 c0 -3 -32 -111 -72 -239 -70 -229 -72 -235 -72 -343 0 -138 22 -214 136 -470 90 -203 127 -305 135 -376 3 -27 9 -49 13 -49 4 0 40 37 81 83 198 218 221 257 220 386 0 170 -57 312 -314 789 -111 205 -127 233 -127 219z"/>
 <path d="M3004 2698 c39 -55 88 -170 109 -257 l23 -93 48 56 c40 47 47 61 41 85 -8 36 -89 128 -165 186 -65 50 -80 56 -56 23z"/>
 <path d="M1820 1965 c0 -3 -34 -115 -75 -250 -41 -135 -79 -272 -85 -305 -14 -78 -1 -154 56 -333 25 -78 48 -163 51 -189 3 -27 9 -48 14 -48 4 0 63 61 130 136 151 170 173 213 167 323 -6 86 -32 168 -109 341 -62 141 -129 306 -129 320 0 5 -4 10 -10 10 -5 0 -10 -2 -10 -5z"/>
 <path d="M1485 853 c-43 -142 -91 -303 -107 -358 -17 -55 -34 -113 -39 -128 -5 -17 -4 -27 1 -25 14 4 217 236 251 285 45 65 66 157 52 235 -12 71 -65 248 -74 248 -3 0 -41 -116 -84 -257z"/>
 </g>
<g id="layer105" fill="#edd3b8" stroke="none">
 <path d="M4167 15626 c-128 -46 -198 -176 -167 -307 l13 -51 42 5 c64 9 128 33 265 98 159 76 480 251 480 261 0 4 -134 8 -297 8 -223 -1 -307 -4 -336 -14z"/>
 <path d="M6850 15633 c-373 -9 -841 -44 -1050 -79 -113 -19 -260 -56 -312 -78 l-38 -16 0 -1453 c0 -798 -4 -1457 -8 -1463 -16 -24 -51 -35 -74 -23 -13 6 -25 14 -28 16 -3 3 -7 677 -10 1498 l-5 1494 -21 28 c-29 39 -74 63 -131 70 -68 8 -163 -32 -469 -197 -428 -231 -553 -282 -684 -282 -41 0 -83 -2 -92 -5 -37 -10 -10 -96 50 -161 27 -29 36 -32 89 -32 143 0 393 107 649 276 44 30 85 54 91 54 23 0 63 -42 63 -66 0 -32 -27 -57 -148 -132 -221 -138 -478 -246 -614 -259 -54 -5 -68 -9 -63 -20 17 -47 -44 -345 -106 -513 -52 -141 -116 -338 -149 -460 -90 -330 -179 -858 -195 -1150 -8 -137 -10 -144 -41 -158 -20 -10 -31 -10 -52 0 -25 12 -27 18 -30 88 -10 217 77 783 182 1191 42 161 75 265 171 539 82 234 116 459 80 526 -10 19 -22 34 -27 34 -12 0 -52 -26 -128 -84 -257 -195 -449 -401 -636 -682 -83 -125 -238 -420 -284 -540 -76 -198 -95 -250 -126 -349 -210 -661 -316 -1520 -327 -2659 l-2 -248 75 7 c41 4 118 11 170 16 130 12 469 11 615 -1 378 -33 675 -91 1012 -201 117 -38 172 -59 348 -132 229 -96 510 -262 780 -463 599 -444 1161 -653 1755 -654 126 0 305 15 416 35 102 19 129 19 148 -1 22 -21 20 -67 -4 -89 -36 -33 -311 -67 -550 -68 -361 -1 -672 60 -1017 201 -40 16 -70 26 -67 21 9 -15 190 -118 297 -169 190 -91 369 -144 542 -161 61 -6 120 -12 132 -15 43 -8 52 -63 17 -99 -36 -36 -287 -5 -484 59 -199 65 -384 155 -575 281 -141 93 -242 173 -437 347 -363 324 -665 519 -1068 689 -319 134 -741 241 -1095 279 -364 39 -837 26 -1129 -31 -113 -21 -273 -72 -302 -95 -19 -15 -18 -15 1 -10 69 17 316 30 535 29 200 0 289 -5 413 -22 366 -49 595 -122 922 -294 17 -9 86 -32 155 -51 415 -114 755 -352 975 -681 247 -369 357 -793 358 -1375 1 -463 -74 -959 -222 -1462 -15 -54 -24 -98 -20 -98 5 0 9 4 9 8 0 5 33 53 74 108 327 441 702 664 1075 641 354 -23 660 -254 837 -633 92 -196 158 -444 185 -694 16 -147 16 -471 0 -620 -55 -501 -219 -915 -460 -1159 -324 -326 -790 -394 -1381 -201 -491 161 -778 483 -831 933 -12 103 -7 318 10 405 10 52 0 54 -23 4 -30 -62 -145 -252 -214 -351 -297 -428 -726 -747 -1223 -910 -293 -95 -487 -125 -804 -125 -188 0 -255 4 -363 22 -224 37 -406 94 -582 182 -136 68 -219 128 -319 229 l-94 95 6 -49 c10 -68 72 -193 144 -290 171 -230 438 -382 807 -460 404 -86 1010 -44 1426 100 355 122 728 371 961 642 102 118 98 114 132 111 45 -4 66 -43 47 -89 -21 -51 -308 -333 -435 -427 -365 -270 -750 -422 -1215 -478 -69 -8 -152 -18 -184 -22 l-59 -7 94 -47 c222 -110 475 -281 564 -380 26 -29 60 -78 76 -109 l28 -57 128 -31 c299 -72 605 -105 973 -105 286 0 438 11 680 49 1198 186 2242 862 2958 1913 254 372 490 859 611 1260 93 306 210 791 199 824 -5 15 -146 -100 -213 -175 -71 -78 -138 -180 -172 -260 -33 -76 -49 -97 -80 -97 -27 0 -63 33 -63 58 0 28 35 112 77 184 154 266 445 491 774 598 109 35 140 55 198 125 76 92 141 237 226 510 101 320 147 464 181 554 62 165 65 267 11 385 -30 64 -129 172 -205 223 -332 220 -939 248 -1568 72 -66 -19 -122 -29 -136 -26 -34 9 -51 49 -36 82 13 29 88 56 294 104 272 63 376 75 654 75 225 1 268 -2 370 -22 400 -79 654 -244 752 -491 l26 -64 44 69 c131 205 342 624 496 984 435 1022 720 2095 821 3095 37 364 43 496 44 880 0 566 -41 988 -143 1489 -56 274 -126 414 -289 576 -165 164 -362 262 -583 290 -115 14 -1751 14 -1855 -1 -103 -14 -214 -58 -300 -118 -38 -27 -132 -115 -210 -195 -78 -81 -170 -170 -205 -198 -147 -119 -312 -158 -515 -122 -29 6 -33 3 -47 -31 -9 -20 -47 -69 -86 -109 -39 -40 -70 -81 -70 -92 0 -29 58 -81 110 -99 121 -43 265 -39 408 9 199 68 319 167 625 516 201 228 272 299 347 345 98 60 137 66 405 63 l239 -3 16 -27 c13 -25 13 -31 0 -55 l-16 -28 -244 -5 c-222 -5 -249 -7 -290 -26 -72 -34 -149 -103 -281 -255 -311 -359 -419 -462 -576 -555 -201 -119 -399 -159 -588 -119 -38 8 -71 15 -72 15 -10 0 0 -293 12 -370 52 -344 229 -626 510 -812 190 -126 404 -203 690 -248 103 -17 134 -25 148 -42 23 -27 22 -53 -4 -79 -19 -19 -28 -21 -88 -15 -192 20 -448 91 -620 172 -358 170 -592 428 -705 779 -58 181 -69 256 -71 481 -2 198 -3 202 -27 235 -40 53 -48 74 -48 124 0 61 19 94 103 183 l70 74 -81 77 c-111 104 -137 155 -137 276 0 77 4 98 27 148 15 32 37 71 48 88 l21 29 -38 -2 c-21 -1 -85 -3 -143 -5z m2854 -49 c21 -20 20 -63 -1 -86 -14 -15 -32 -18 -121 -18 -117 0 -142 11 -142 61 0 51 20 59 140 59 85 0 112 -3 124 -16z m-4681 -205 c48 -26 50 -67 5 -104 -73 -62 -134 -69 -156 -20 -17 37 0 66 61 103 59 36 60 36 90 21z m4221 -2311 c21 -30 20 -54 -4 -78 -18 -18 -33 -20 -170 -20 -137 0 -152 2 -170 20 -24 24 -25 48 -4 78 15 21 21 22 174 22 153 0 159 -1 174 -22z m-3794 -868 l0 -60 -60 0 -60 0 0 60 0 60 60 0 60 0 0 -60z m-758 -2484 c281 -160 486 -391 668 -754 141 -281 261 -702 295 -1033 6 -60 5 -69 -14 -88 -26 -26 -52 -27 -80 -3 -16 13 -23 36 -31 97 -106 801 -440 1421 -905 1677 -73 39 -80 47 -83 77 -4 38 20 71 52 71 12 0 56 -20 98 -44z m2888 -1095 l0 -58 -37 -7 c-21 -3 -75 -6 -120 -6 l-83 0 0 59 0 60 38 4 c20 2 74 4 120 5 l82 2 0 -59z m-1920 -1056 l0 -85 -60 0 -60 0 0 85 0 85 60 0 60 0 0 -85z"/>
 <path d="M7251 15629 c-175 -51 -240 -276 -120 -413 66 -75 198 -113 357 -103 71 4 96 11 160 43 69 33 98 58 267 229 105 105 207 202 227 216 21 13 38 27 38 32 0 11 -889 7 -929 -4z"/>
 <path d="M3042 15419 c-79 -15 -146 -70 -181 -149 -28 -61 -28 -163 -1 -207 17 -29 25 -33 64 -33 102 0 327 96 506 216 104 70 223 162 228 175 5 11 -559 10 -616 -2z"/>
 <path d="M3800 15354 c-36 -20 -105 -68 -155 -107 -121 -95 -236 -167 -380 -237 -164 -80 -239 -102 -347 -103 l-87 0 -11 -30 c-14 -41 -13 -73 4 -106 21 -39 37 -50 92 -60 95 -18 255 26 406 111 87 49 111 49 137 0 23 -44 -3 -71 -134 -137 -127 -64 -261 -105 -348 -105 l-47 0 0 -77 c0 -98 -37 -193 -129 -336 -214 -336 -331 -742 -427 -1482 -37 -287 -96 -1019 -81 -1005 2 3 12 88 21 190 45 492 152 1050 274 1425 244 747 620 1295 1142 1660 l78 55 -14 48 c-22 72 -11 118 42 170 l44 42 -7 60 -8 60 -65 -36z"/>
 <path d="M11359 14935 c-3 -2 12 -89 33 -192 61 -309 108 -670 126 -987 l7 -129 40 -12 c146 -43 268 -138 300 -234 35 -105 6 -223 -71 -291 -59 -51 -109 -70 -191 -70 -70 0 -73 -1 -73 -24 0 -21 7 -26 53 -36 257 -58 552 20 732 196 115 112 205 273 252 452 36 134 38 343 5 476 -48 191 -139 354 -277 491 -204 205 -472 329 -763 355 -131 11 -166 12 -173 5z"/>
 <path d="M4207 9496 c352 -376 541 -838 560 -1371 11 -305 -44 -519 -165 -642 -72 -75 -128 -98 -237 -98 -104 0 -100 -1 -330 111 -275 134 -426 176 -630 176 -289 0 -513 -96 -915 -391 -184 -136 -365 -222 -569 -271 -212 -51 -336 -65 -567 -64 l-210 0 33 -76 c67 -155 96 -319 96 -540 0 -139 -4 -185 -26 -291 -45 -217 -113 -362 -224 -480 -132 -140 -280 -170 -436 -89 -49 26 -58 28 -54 13 3 -10 22 -88 42 -174 20 -86 40 -161 44 -168 6 -9 19 -9 52 -2 48 12 272 14 332 5 20 -4 61 -21 89 -38 165 -98 155 -349 -16 -439 -33 -17 -63 -22 -158 -25 l-117 -4 35 -76 c84 -185 255 -453 340 -533 197 -185 530 -318 896 -358 122 -14 394 -14 513 -1 269 29 566 115 800 230 518 255 859 628 1176 1285 304 631 506 1296 596 1966 25 185 27 233 28 524 0 335 -5 398 -56 649 -29 144 -100 350 -164 478 -165 327 -421 578 -740 723 l-78 36 60 -65z m-626 -2106 c466 -99 806 -497 844 -987 9 -108 -8 -257 -42 -372 -116 -403 -447 -700 -854 -766 -559 -90 -1089 275 -1209 835 -54 251 -25 480 90 715 218 445 691 677 1171 575z m1427 -200 c88 -54 96 -166 18 -239 -34 -32 -119 -41 -164 -17 -39 20 -68 61 -77 108 -9 50 23 121 67 148 43 26 113 26 156 0z m-1273 -2144 c55 -25 110 -81 131 -132 8 -19 14 -62 14 -97 0 -107 -56 -191 -155 -233 -50 -20 -709 -21 -759 0 -84 35 -156 141 -156 230 0 94 58 188 142 230 l52 26 340 0 c336 0 342 -1 391 -24z"/>
 <path d="M3255 7160 c-332 -50 -599 -287 -685 -606 -138 -512 229 -1029 745 -1049 92 -4 95 -3 36 5 -339 48 -593 274 -692 615 -34 119 -32 305 5 428 73 243 216 416 433 525 64 33 191 72 230 72 13 0 23 5 23 10 0 11 -21 11 -95 0z"/>
 <path d="M3505 6218 c-49 -27 -71 -92 -42 -128 49 -63 131 -66 179 -6 62 75 -48 183 -137 134z"/>
 <path d="M3705 6066 c-52 -23 -85 -71 -85 -122 0 -120 168 -175 258 -83 80 81 24 206 -97 216 -26 2 -59 -3 -76 -11z"/>
 <path d="M430 7190 l0 -119 64 62 65 62 -57 58 c-31 31 -60 57 -64 57 -4 0 -8 -54 -8 -120z"/>
 <path d="M1144 7210 c-22 -5 -58 -16 -80 -25 -37 -16 -38 -17 -19 -31 34 -25 88 -36 215 -41 134 -5 260 13 289 42 13 13 10 16 -23 30 -20 9 -60 20 -88 25 -60 12 -235 11 -294 0z"/>
 <path d="M780 6231 c-17 -32 -12 -96 8 -114 10 -10 23 -17 29 -17 21 0 43 38 43 74 0 50 -15 76 -45 76 -14 0 -29 -8 -35 -19z"/>
 <path d="M871 6105 c-11 -14 -22 -39 -26 -55 -9 -42 12 -107 41 -127 24 -15 27 -15 52 4 48 36 54 141 11 184 -26 26 -54 24 -78 -6z"/>
 <path d="M1655 3174 c64 -59 243 -197 294 -227 l30 -18 25 81 c15 45 26 87 26 94 0 9 -18 16 -47 21 -69 9 -270 60 -334 84 l-54 20 60 -55z"/>
 </g>
<g id="layer106" fill="#ffffff" stroke="none">
 <path d="M6949 15636 c-4 -4 -211 -13 -494 -21 -102 -3 -233 -13 -385 -31 -30 -3 -71 -8 -90 -10 -148 -16 -171 -19 -235 -34 -27 -6 -61 -13 -75 -16 -62 -10 -120 -24 -137 -32 -10 -6 -30 -15 -45 -23 l-28 -12 0 -1444 c0 -1473 0 -1470 -35 -1495 -24 -18 -64 -8 -84 21 l-21 29 0 1484 0 1484 -32 31 c-18 18 -46 37 -63 43 -32 13 -100 16 -125 7 -101 -36 -135 -51 -195 -82 -38 -20 -97 -51 -130 -70 -88 -51 -140 -78 -240 -129 -49 -26 -101 -52 -115 -60 -47 -26 -157 -76 -166 -76 -5 0 -22 -7 -38 -15 -46 -24 -172 -47 -221 -40 -23 4 -53 4 -65 0 -19 -6 -21 -12 -15 -43 8 -42 67 -137 91 -146 47 -18 171 2 284 46 50 20 96 40 120 54 14 7 36 19 50 25 14 6 32 15 40 20 8 5 29 15 47 23 18 8 62 35 98 60 36 25 69 46 73 46 5 0 17 9 27 20 27 30 81 37 107 14 20 -17 21 -18 15 -1 -10 26 10 58 57 95 73 54 141 35 134 -39 -2 -28 -13 -40 -57 -71 -60 -42 -85 -46 -114 -20 -18 15 -20 15 -15 1 9 -24 -26 -75 -64 -95 -18 -9 -45 -27 -61 -40 -15 -12 -55 -37 -90 -54 -34 -18 -69 -38 -77 -45 -21 -18 -204 -105 -222 -105 -8 0 -18 -4 -24 -9 -9 -10 -151 -51 -194 -57 -83 -10 -90 -14 -92 -47 -7 -132 -11 -162 -32 -242 -9 -33 -18 -69 -20 -80 -4 -23 -43 -149 -57 -182 -5 -13 -13 -33 -18 -45 -5 -13 -15 -40 -21 -61 -7 -22 -18 -51 -26 -65 -8 -15 -14 -33 -14 -40 0 -8 -12 -48 -26 -90 -15 -42 -33 -102 -40 -132 -7 -30 -22 -93 -33 -140 -12 -47 -24 -98 -26 -114 -2 -16 -9 -43 -14 -60 -9 -30 -21 -88 -26 -131 -4 -29 -11 -68 -30 -169 -9 -49 -19 -105 -21 -125 -3 -20 -7 -47 -8 -61 -2 -14 -7 -50 -10 -80 -4 -30 -9 -66 -11 -80 -12 -65 -18 -143 -17 -224 2 -75 -1 -93 -19 -118 -19 -26 -26 -29 -58 -23 -20 3 -41 12 -46 19 -21 27 -1 333 36 566 6 36 12 76 14 90 7 59 16 114 31 182 9 40 16 80 16 88 0 8 6 38 14 67 8 28 21 85 29 125 16 76 26 116 45 183 6 22 12 47 12 55 0 8 4 20 8 25 4 6 13 33 19 60 7 28 15 57 19 65 3 8 4 19 3 24 -1 4 3 13 8 20 5 6 14 31 21 56 11 42 31 94 50 130 4 9 11 31 15 50 4 19 11 40 16 46 13 16 48 153 70 269 25 137 23 197 -7 249 -11 19 -14 18 -68 -20 -31 -21 -64 -43 -74 -49 -9 -5 -21 -15 -27 -21 -5 -6 -36 -30 -68 -53 -55 -40 -242 -224 -317 -311 -19 -23 -52 -60 -72 -83 -21 -23 -38 -48 -38 -55 0 -7 -7 -15 -15 -18 -8 -4 -15 -10 -15 -15 0 -4 -27 -47 -60 -94 -33 -47 -60 -88 -60 -91 0 -2 -12 -23 -27 -47 -15 -23 -33 -51 -40 -62 -19 -32 -123 -241 -123 -248 0 -3 -17 -43 -39 -89 -21 -46 -42 -94 -46 -108 -4 -14 -18 -49 -31 -78 -13 -29 -24 -60 -24 -70 0 -9 -7 -30 -15 -45 -8 -16 -19 -47 -25 -70 -6 -23 -15 -51 -20 -62 -10 -21 -60 -212 -105 -400 -7 -28 -44 -223 -50 -260 -3 -16 -12 -68 -21 -115 -9 -47 -17 -98 -19 -115 -9 -78 -14 -113 -20 -155 -11 -77 -13 -93 -20 -150 -10 -91 -17 -162 -20 -205 -1 -22 -6 -80 -10 -130 -26 -302 -29 -380 -38 -895 -4 -184 -9 -357 -12 -383 l-6 -49 68 7 c37 4 82 8 98 11 210 28 601 23 874 -11 25 -4 64 -8 86 -10 86 -9 122 -14 180 -29 32 -9 72 -16 87 -16 15 0 71 -12 125 -26 54 -14 106 -26 115 -26 10 1 20 -3 23 -9 4 -5 16 -9 28 -9 25 0 133 -33 143 -43 4 -4 17 -7 28 -7 12 0 34 -7 50 -15 15 -8 35 -15 43 -15 8 0 39 -11 69 -25 30 -14 60 -25 67 -25 6 0 34 -11 62 -24 27 -13 73 -34 100 -46 76 -34 286 -139 320 -160 17 -11 51 -30 76 -43 63 -34 281 -182 304 -207 10 -11 23 -20 28 -20 6 0 17 -7 26 -15 20 -20 152 -113 195 -138 17 -11 40 -27 52 -38 11 -10 24 -19 28 -19 4 0 22 -11 39 -24 18 -14 43 -30 57 -36 14 -6 43 -21 65 -34 33 -20 179 -95 315 -161 14 -7 43 -18 65 -25 22 -7 54 -18 70 -25 77 -33 261 -90 277 -87 4 1 27 -4 50 -12 42 -13 167 -38 218 -42 14 -1 59 -6 100 -10 98 -10 365 -9 460 0 41 5 89 9 105 11 48 4 154 23 164 30 13 8 62 -13 77 -33 20 -26 17 -46 -13 -74 -26 -25 -53 -33 -148 -43 -16 -2 -48 -6 -70 -9 -196 -28 -499 -29 -685 -1 -19 3 -51 8 -70 10 -86 11 -266 52 -328 75 -29 11 -60 20 -68 20 -9 0 -30 6 -47 14 -18 8 -50 20 -72 27 -22 6 -49 18 -60 25 -23 17 -49 18 -40 3 4 -5 17 -15 28 -20 12 -5 36 -18 52 -29 17 -11 68 -38 115 -60 47 -23 103 -50 125 -61 22 -10 44 -19 48 -19 5 0 23 -6 40 -14 18 -8 50 -19 72 -26 22 -6 49 -15 60 -20 58 -23 202 -48 319 -54 58 -3 73 -7 88 -26 26 -33 23 -65 -10 -89 -24 -17 -40 -19 -98 -16 -38 3 -87 8 -109 11 -22 4 -49 8 -60 10 -56 7 -92 15 -140 33 -29 11 -55 18 -58 15 -5 -5 -56 14 -99 37 -10 5 -23 9 -30 9 -7 0 -31 9 -53 19 -98 48 -236 117 -298 150 -78 42 -317 209 -317 222 0 5 -5 9 -12 9 -7 0 -21 9 -33 19 -35 34 -90 84 -165 151 -40 36 -85 76 -101 90 -15 14 -44 39 -64 55 -20 17 -45 38 -55 47 -11 10 -43 34 -72 55 -29 20 -98 70 -154 110 -55 40 -104 73 -108 73 -4 0 -22 11 -39 24 -18 14 -43 30 -57 36 -14 6 -47 23 -75 39 -59 34 -221 115 -285 144 -25 10 -57 26 -72 33 -14 8 -32 14 -38 14 -7 0 -34 10 -59 21 -63 29 -81 36 -116 44 -16 4 -48 15 -72 26 -23 10 -48 19 -54 19 -16 0 -196 49 -224 61 -11 5 -58 16 -105 24 -47 9 -96 19 -110 22 -30 7 -41 9 -100 17 -25 4 -52 9 -60 11 -36 11 -180 25 -400 40 -210 14 -388 9 -710 -19 -98 -9 -341 -61 -393 -85 -25 -12 -52 -21 -60 -21 -7 0 -22 -7 -33 -16 -19 -15 -19 -15 1 -10 73 18 279 31 520 31 207 0 297 -4 420 -21 22 -3 56 -7 75 -9 19 -2 46 -6 60 -8 14 -3 52 -10 85 -16 92 -17 276 -66 320 -86 17 -7 58 -22 93 -34 34 -11 75 -26 90 -34 59 -30 99 -51 155 -83 33 -19 67 -34 77 -34 11 0 22 -5 25 -10 4 -6 10 -8 15 -5 5 3 32 -4 60 -15 28 -11 60 -20 71 -20 19 0 68 -18 111 -41 10 -5 25 -9 33 -9 8 0 36 -11 62 -25 27 -13 77 -38 113 -55 36 -17 79 -40 95 -50 17 -11 40 -25 51 -32 212 -129 433 -362 545 -575 97 -184 93 -175 124 -268 15 -44 31 -84 35 -90 5 -5 12 -28 16 -50 4 -22 13 -54 20 -72 8 -17 16 -46 18 -65 3 -18 12 -71 21 -118 9 -47 19 -96 21 -110 3 -14 7 -43 9 -65 2 -22 7 -80 12 -130 10 -114 10 -468 0 -605 -5 -58 -10 -125 -12 -150 -5 -68 -13 -136 -26 -204 -14 -76 -17 -100 -24 -156 -3 -24 -11 -71 -19 -105 -8 -33 -17 -73 -20 -90 -10 -49 -14 -66 -35 -155 -12 -47 -23 -100 -26 -119 -3 -18 -10 -41 -15 -50 -5 -10 -16 -48 -25 -87 -8 -38 -18 -78 -22 -89 -3 -11 27 23 67 75 94 123 93 122 239 266 68 68 132 126 142 129 11 4 19 10 19 15 0 13 158 111 222 137 33 13 67 28 76 32 17 9 121 42 157 50 11 2 90 4 175 5 138 1 163 -2 230 -23 82 -26 235 -98 252 -118 6 -7 16 -13 22 -13 22 0 140 -109 216 -199 47 -55 200 -316 200 -339 0 -13 20 -65 40 -103 14 -27 70 -231 70 -255 0 -12 4 -34 9 -47 9 -23 15 -60 27 -152 28 -219 23 -660 -10 -835 -2 -14 -10 -52 -16 -85 -6 -33 -13 -71 -16 -85 -7 -39 -12 -62 -24 -105 -6 -22 -15 -59 -20 -83 -5 -24 -16 -58 -24 -75 -8 -18 -17 -43 -21 -57 -4 -14 -18 -47 -30 -75 -13 -27 -38 -81 -55 -120 -18 -38 -43 -84 -56 -102 -13 -17 -24 -35 -24 -39 0 -17 -90 -125 -171 -205 -81 -81 -166 -149 -186 -149 -5 0 -24 -11 -41 -24 -18 -13 -54 -31 -80 -40 -26 -10 -55 -22 -65 -27 -10 -6 -31 -12 -45 -14 -15 -3 -47 -10 -72 -16 -68 -17 -194 -32 -275 -32 -78 0 -241 17 -314 34 -25 6 -59 12 -76 15 -39 5 -149 38 -310 94 -268 94 -571 357 -645 561 -11 28 -23 56 -29 63 -6 7 -17 40 -25 73 -7 34 -17 66 -20 72 -14 21 -20 113 -20 291 0 102 2 204 5 227 6 50 -3 47 -31 -10 -33 -67 -52 -99 -82 -141 -15 -21 -28 -44 -28 -51 0 -7 -9 -20 -20 -30 -11 -10 -20 -23 -20 -29 0 -7 -13 -27 -30 -46 -16 -19 -29 -39 -30 -44 0 -5 -24 -37 -52 -71 -29 -35 -69 -82 -88 -105 -76 -93 -300 -305 -341 -324 -10 -5 -19 -12 -19 -16 0 -8 -144 -110 -156 -110 -4 0 -15 -6 -23 -14 -29 -26 -100 -63 -326 -171 -27 -13 -61 -27 -75 -30 -14 -4 -29 -11 -35 -15 -16 -11 -232 -77 -320 -96 -99 -22 -103 -23 -140 -28 -87 -12 -116 -16 -180 -25 -67 -10 -483 -8 -535 2 -62 11 -98 17 -137 21 -52 6 -252 53 -273 65 -8 4 -42 16 -75 25 -33 10 -76 26 -95 36 -19 9 -51 25 -70 34 -77 38 -216 126 -269 171 -29 24 -95 91 -133 135 -31 35 -34 27 -14 -45 16 -60 52 -138 84 -182 12 -17 22 -34 22 -38 0 -11 48 -68 115 -138 143 -148 393 -285 620 -339 220 -52 302 -60 580 -60 232 0 300 4 450 28 61 9 121 18 135 20 96 14 312 70 375 98 17 8 41 17 55 21 41 11 251 112 315 151 22 13 47 27 55 31 21 10 192 129 211 148 9 8 19 15 22 15 4 0 15 8 25 18 10 9 45 40 78 67 76 65 136 125 204 204 30 35 64 73 74 83 40 37 85 14 92 -47 4 -36 0 -45 -38 -89 -46 -51 -217 -224 -265 -266 -59 -53 -239 -190 -248 -190 -4 0 -41 -23 -83 -51 -42 -28 -94 -60 -116 -70 -23 -10 -48 -23 -56 -27 -16 -9 -114 -55 -165 -77 -81 -36 -102 -44 -130 -51 -16 -4 -35 -11 -41 -15 -6 -5 -31 -13 -55 -18 -24 -6 -62 -15 -84 -21 -22 -6 -48 -13 -57 -14 -10 -1 -21 -5 -24 -9 -4 -4 -24 -7 -45 -7 -21 0 -49 -4 -62 -9 -14 -6 -47 -13 -74 -16 -26 -4 -61 -9 -78 -11 -16 -3 -52 -7 -80 -9 -27 -3 -68 -7 -90 -9 -22 -3 -56 -5 -75 -6 -32 -1 -29 -4 50 -42 47 -22 92 -46 100 -53 8 -7 47 -29 86 -49 39 -19 77 -42 84 -51 7 -8 16 -15 21 -15 15 0 154 -98 215 -152 66 -58 153 -167 163 -206 5 -18 17 -29 37 -34 84 -21 262 -61 284 -63 14 -2 39 -6 55 -8 100 -17 257 -39 300 -42 28 -2 102 -7 165 -11 146 -11 381 -11 535 0 66 4 140 9 165 11 39 2 71 6 177 20 12 2 35 6 52 10 18 4 48 9 69 11 82 10 108 16 304 62 70 17 131 33 137 36 6 4 24 9 41 11 34 4 130 34 145 45 6 4 32 13 60 19 27 7 54 16 60 21 5 4 36 16 67 25 32 9 60 21 63 26 4 5 14 9 24 9 10 0 45 13 77 29 32 16 86 41 119 56 33 15 67 31 75 36 8 5 56 29 105 54 50 24 99 50 110 57 23 14 112 69 136 83 9 6 42 27 73 47 31 21 60 38 65 38 4 0 16 9 26 20 10 11 23 20 28 20 5 0 40 24 76 53 36 30 80 62 96 73 17 10 32 21 35 25 3 3 52 45 110 92 175 144 362 321 462 437 26 30 70 80 98 111 27 30 64 75 81 100 18 24 38 51 45 59 44 50 74 89 74 97 0 5 11 20 25 33 14 13 25 28 25 33 0 5 20 36 45 68 25 33 45 62 45 65 0 4 16 29 35 55 19 27 35 52 35 56 0 3 11 21 26 40 14 18 38 59 55 91 16 31 42 80 58 107 38 64 151 288 151 298 0 4 25 58 55 119 30 62 55 121 55 130 0 9 4 20 10 23 5 3 14 25 21 48 6 23 17 56 24 72 7 17 30 86 50 155 21 69 46 150 56 180 10 30 21 73 25 95 4 22 10 45 14 50 4 6 10 24 13 40 12 61 30 140 35 155 2 8 6 24 7 35 2 11 11 49 20 85 9 36 19 76 21 90 7 39 10 53 18 83 5 15 6 31 2 34 -13 13 -197 -150 -259 -229 -51 -66 -71 -100 -103 -168 -20 -41 -41 -86 -47 -99 -15 -31 -49 -43 -81 -28 -41 19 -47 68 -17 131 11 23 27 57 35 76 9 19 31 55 50 80 19 25 35 49 35 54 3 33 304 316 337 316 6 0 19 9 29 20 10 11 27 22 38 26 11 4 61 28 110 55 50 27 98 49 108 49 10 0 20 4 23 9 4 5 24 12 46 16 22 4 42 11 46 16 3 5 14 9 24 9 10 0 40 13 67 30 46 28 58 43 160 201 13 19 23 40 23 46 0 6 6 24 14 40 8 15 20 42 26 58 7 17 16 38 21 47 5 10 9 27 9 37 0 11 4 22 9 26 5 3 12 20 16 38 6 31 99 333 115 372 4 11 22 67 41 125 18 58 36 109 41 114 4 6 8 17 8 25 0 9 7 29 16 46 8 16 22 61 30 100 12 58 13 81 3 135 -6 36 -18 74 -25 85 -8 11 -14 26 -14 33 0 30 -166 212 -193 212 -6 0 -25 11 -43 25 -18 14 -39 25 -46 25 -7 0 -33 11 -57 25 -23 14 -50 25 -58 25 -8 0 -29 6 -46 13 -48 21 -100 36 -138 42 -19 3 -47 7 -64 10 -76 11 -97 14 -205 25 -117 12 -256 7 -422 -16 -24 -3 -56 -7 -73 -10 -16 -2 -48 -6 -70 -9 -22 -2 -76 -13 -120 -24 -44 -11 -83 -17 -87 -15 -3 2 -9 0 -13 -6 -3 -5 -18 -10 -33 -10 -14 0 -44 -6 -67 -14 -128 -45 -146 -47 -179 -28 -45 26 -48 72 -8 101 17 12 36 21 44 21 7 0 37 9 65 20 29 11 67 22 85 24 18 3 59 12 92 21 63 18 99 24 161 31 22 2 60 8 85 14 196 44 578 46 773 4 40 -9 85 -17 101 -19 36 -5 187 -55 202 -66 6 -5 30 -16 55 -24 48 -17 189 -102 189 -114 0 -4 11 -13 24 -19 50 -23 147 -157 188 -260 7 -17 16 -32 19 -32 11 0 37 34 60 80 13 24 37 65 54 90 26 38 228 441 299 595 22 47 52 113 99 215 11 25 26 57 34 72 7 14 13 31 13 37 0 12 30 84 56 134 8 16 14 34 14 40 0 7 12 35 25 62 14 28 25 56 25 63 0 7 4 20 9 30 15 29 29 66 36 92 8 27 31 84 46 112 5 10 9 25 9 34 0 9 7 32 16 52 25 58 31 74 44 122 7 25 16 50 20 55 4 6 15 39 24 75 9 35 23 78 31 94 8 16 15 35 15 42 0 18 48 175 60 196 6 10 10 24 10 33 0 8 12 54 26 102 33 111 44 152 51 183 2 14 7 32 10 40 4 8 6 18 5 21 -1 4 3 22 9 40 6 19 19 68 29 109 10 41 24 95 30 120 6 25 16 68 21 95 5 28 11 59 14 70 16 71 46 227 51 264 3 19 9 55 15 80 12 50 28 146 34 201 2 19 6 46 9 60 2 14 7 45 10 70 3 25 8 56 11 70 6 30 16 111 20 160 3 35 14 144 19 190 15 128 21 217 32 465 14 299 11 499 -11 905 -2 51 -14 180 -20 225 -6 41 -16 122 -21 170 -8 79 -13 111 -29 205 -9 52 -19 109 -21 125 -6 47 -34 193 -49 260 -3 11 -9 40 -14 65 -5 25 -17 59 -25 75 -9 17 -16 34 -16 39 0 29 -111 222 -137 239 -7 4 -13 12 -13 17 0 10 -119 129 -162 163 -59 46 -192 120 -248 138 -19 7 -40 15 -45 20 -14 11 -111 34 -180 44 -39 5 -1841 5 -1880 -1 -86 -11 -103 -16 -147 -39 -26 -14 -53 -25 -58 -25 -6 0 -26 -11 -44 -25 -18 -14 -38 -25 -44 -25 -6 0 -101 -90 -211 -200 -110 -110 -204 -200 -210 -200 -5 0 -11 -6 -14 -13 -5 -15 -133 -78 -197 -98 -50 -15 -231 -19 -292 -5 -28 6 -38 5 -38 -4 0 -20 -70 -112 -117 -153 -31 -28 -43 -46 -43 -67 0 -58 111 -118 250 -135 89 -10 337 50 370 90 7 8 17 15 22 15 5 0 36 19 70 43 33 23 68 47 77 52 24 15 228 222 281 285 25 30 59 70 76 88 17 19 44 50 60 69 53 63 238 245 259 254 11 5 36 19 55 30 60 37 138 44 384 39 254 -6 255 -6 242 -72 -10 -55 -30 -60 -276 -58 -218 1 -277 -5 -309 -34 -10 -9 -22 -16 -27 -16 -15 0 -191 -181 -279 -286 -120 -143 -255 -287 -341 -364 -51 -46 -120 -100 -129 -100 -3 0 -21 -11 -38 -24 -57 -43 -208 -105 -302 -124 -34 -7 -287 -5 -334 2 l-43 7 6 -158 c3 -87 8 -174 12 -193 3 -19 7 -48 9 -63 3 -25 44 -167 65 -222 12 -33 64 -138 81 -165 81 -126 91 -139 164 -213 79 -80 223 -186 305 -224 70 -32 163 -74 185 -83 47 -19 223 -71 255 -75 172 -24 282 -49 293 -66 18 -28 0 -83 -32 -97 -15 -7 -35 -10 -42 -7 -8 3 -30 7 -49 9 -19 2 -73 11 -120 21 -47 9 -100 18 -119 21 -18 2 -41 9 -50 14 -10 5 -46 15 -82 24 -35 8 -77 22 -94 30 -16 9 -34 16 -39 16 -5 0 -36 13 -70 29 -34 16 -72 34 -86 40 -106 47 -227 137 -347 259 -57 57 -103 107 -103 112 0 5 -8 16 -17 26 -31 30 -87 132 -153 279 -23 50 -59 162 -65 201 -3 16 -10 54 -15 84 -23 126 -29 288 -17 423 3 38 1 60 -7 65 -7 4 -25 24 -41 45 -24 33 -28 47 -28 102 0 71 5 81 106 190 51 56 57 66 47 84 -6 12 -14 21 -18 21 -11 0 -122 105 -122 116 0 5 -8 21 -17 34 -33 46 -42 92 -39 185 3 78 8 98 35 150 18 32 39 67 48 77 15 17 14 18 -24 18 -22 0 -42 -2 -44 -4z m2743 -41 c19 -8 40 -59 32 -80 -13 -33 -52 -45 -149 -45 -91 0 -97 1 -120 26 -32 34 -32 67 0 91 21 15 42 18 123 16 53 0 105 -4 114 -8z m-442 -2520 c14 -17 7 -81 -10 -99 -7 -7 -68 -12 -151 -14 -180 -4 -208 7 -209 84 0 40 16 44 191 44 136 0 169 -3 179 -15z m-3792 -874 l3 -61 -71 0 -70 0 0 58 c0 32 2 61 4 63 2 2 33 3 68 3 l63 -2 3 -61z m-797 -2467 c71 -33 118 -61 152 -90 16 -13 33 -24 39 -24 13 0 298 -287 298 -301 0 -6 15 -28 33 -49 18 -22 40 -52 47 -67 8 -15 23 -39 32 -53 33 -47 141 -258 153 -300 4 -14 16 -41 26 -60 11 -19 19 -40 19 -47 0 -8 4 -21 9 -31 23 -45 80 -221 97 -297 3 -16 12 -49 20 -73 8 -23 13 -46 12 -50 -1 -4 2 -20 6 -37 25 -112 33 -154 42 -220 20 -162 16 -196 -24 -211 -64 -24 -87 17 -111 201 -6 50 -14 99 -16 110 -7 30 -14 63 -25 129 -6 32 -15 67 -20 77 -6 10 -10 29 -10 43 0 14 -4 27 -9 30 -4 3 -11 23 -14 44 -2 22 -12 54 -20 73 -8 19 -20 52 -27 74 -12 41 -17 54 -44 117 -9 20 -16 40 -16 44 0 10 -37 91 -56 124 -8 14 -29 54 -46 90 -17 36 -42 79 -55 96 -13 17 -23 35 -23 40 -1 5 -14 25 -30 44 -17 19 -30 40 -30 47 0 7 -4 13 -8 13 -5 0 -24 21 -42 47 -72 100 -217 229 -358 318 -34 22 -77 49 -95 61 -27 17 -32 25 -29 55 3 36 24 59 53 59 9 0 41 -12 70 -26z m2922 -1080 c3 -20 4 -49 0 -64 -5 -26 -10 -29 -57 -34 -28 -3 -82 -7 -121 -8 l-70 -3 2 59 c1 32 3 60 5 61 4 4 159 22 204 24 29 1 32 -2 37 -35z m-1923 -1094 l0 -91 -62 3 c-35 2 -62 6 -60 11 1 4 2 43 2 87 l0 80 60 0 60 0 0 -90z"/>
 <path d="M3791 15345 c-28 -19 -53 -35 -56 -35 -3 0 -42 -28 -85 -62 -123 -97 -208 -154 -295 -198 -22 -11 -47 -24 -55 -28 -33 -19 -126 -61 -150 -67 -14 -4 -30 -12 -36 -17 -23 -18 -149 -37 -215 -33 l-67 5 -11 -32 c-14 -39 -14 -85 0 -93 5 -4 14 -17 19 -29 6 -17 24 -27 67 -39 51 -15 65 -15 118 -3 33 8 63 12 67 10 3 -2 9 0 13 6 3 5 16 10 28 10 12 0 60 20 107 45 47 24 104 54 127 65 l42 22 31 -22 c44 -31 41 -70 -7 -107 -69 -53 -287 -147 -366 -157 -142 -20 -140 -18 -136 -98 3 -46 -35 -183 -57 -209 -8 -8 -14 -21 -14 -27 0 -6 -16 -31 -35 -56 -19 -26 -35 -49 -35 -53 0 -3 -10 -20 -23 -37 -26 -35 -117 -211 -117 -227 0 -6 -9 -31 -21 -56 -11 -25 -27 -69 -34 -97 -8 -28 -21 -64 -29 -81 -9 -16 -16 -42 -16 -57 0 -15 -5 -30 -10 -33 -6 -4 -8 -10 -5 -15 2 -4 -4 -34 -15 -66 -11 -33 -20 -71 -20 -86 0 -15 -5 -30 -10 -33 -6 -4 -8 -10 -6 -14 3 -4 -2 -34 -10 -67 -8 -32 -19 -84 -24 -114 -10 -54 -12 -65 -23 -142 -4 -21 -11 -66 -17 -100 -7 -35 -14 -81 -16 -103 -6 -53 -14 -119 -28 -220 -10 -70 -17 -138 -22 -200 -7 -91 -12 -145 -18 -205 -3 -30 -8 -93 -11 -140 -4 -46 -8 -88 -11 -91 -2 -4 0 -10 6 -14 6 -3 11 4 11 17 4 75 12 142 30 258 6 36 13 81 15 100 8 56 13 93 18 120 8 39 36 201 41 240 3 19 12 57 20 84 8 27 15 62 15 76 0 15 3 30 7 33 3 4 8 20 9 36 2 17 10 49 19 73 8 24 15 52 15 64 0 11 3 24 7 28 4 3 7 14 8 24 2 19 32 115 45 147 5 11 18 49 29 85 26 86 68 206 87 250 8 19 19 44 23 55 41 99 194 406 226 453 18 26 35 57 39 68 4 12 15 29 26 39 11 10 20 22 20 27 0 10 97 149 114 163 7 6 17 17 22 27 19 34 104 128 229 253 149 148 198 191 325 282 79 57 90 68 83 87 -4 11 -7 49 -7 83 1 52 6 67 29 95 15 18 36 36 46 40 15 6 17 15 13 50 -6 55 -13 78 -24 78 -4 0 -31 -16 -59 -35z"/>
 <path d="M2299 11867 c-2 -33 -1 -61 2 -63 9 -5 16 82 8 104 -4 9 -8 -9 -10 -41z"/>
 <path d="M1150 7208 c-135 -32 -140 -40 -45 -74 41 -14 73 -17 190 -17 128 0 147 2 210 22 73 24 67 36 -30 61 -58 15 -274 20 -325 8z"/>
 <path d="M3285 7163 c-11 -2 -54 -10 -96 -18 -124 -24 -354 -152 -421 -234 -68 -84 -140 -204 -179 -296 -35 -84 -55 -325 -35 -425 15 -76 70 -233 93 -268 123 -181 201 -253 376 -346 38 -20 77 -36 87 -36 11 0 39 -6 62 -14 55 -18 92 -23 96 -12 1 5 -9 10 -22 12 -14 1 -60 19 -101 38 -42 20 -79 36 -82 36 -21 0 -131 86 -198 155 -81 84 -114 135 -186 287 -41 85 -59 345 -32 463 8 39 19 74 24 80 5 5 9 17 9 26 0 10 6 30 14 46 8 15 19 39 26 53 16 38 35 68 53 88 10 10 17 23 17 29 0 16 134 149 181 180 89 59 170 103 189 103 4 0 20 7 36 15 15 7 52 17 81 21 29 3 50 10 47 15 -5 9 -6 9 -39 2z"/>
 <path d="M781 6219 c-11 -25 -11 -39 -2 -71 14 -46 34 -57 61 -33 22 20 26 67 10 109 -14 38 -51 35 -69 -5z"/>
 <path d="M3501 6214 c-32 -16 -50 -45 -50 -79 0 -39 17 -61 63 -80 68 -29 146 14 146 80 0 68 -91 113 -159 79z"/>
 <path d="M897 6123 c-9 -2 -27 -23 -38 -45 -26 -52 -19 -105 21 -143 28 -27 29 -27 53 -9 39 29 63 123 37 139 -5 3 -10 15 -10 25 0 16 -30 43 -42 39 -2 -1 -11 -3 -21 -6z"/>
 <path d="M3700 6062 c-70 -37 -95 -101 -65 -166 28 -59 113 -97 169 -76 62 24 74 33 96 77 24 47 22 76 -7 120 -33 49 -137 74 -193 45z"/>
 <path d="M3297 5508 c-7 -4 9 -8 36 -8 26 0 47 2 47 4 0 8 -71 12 -83 4z"/>
 <path d="M1641 3190 c24 -22 59 -52 77 -67 18 -16 45 -39 60 -52 15 -13 56 -43 92 -67 36 -24 75 -51 87 -59 20 -16 22 -15 33 21 7 20 18 61 25 90 14 60 13 61 -58 69 -36 5 -164 33 -187 42 -8 3 -19 7 -25 8 -5 0 -17 4 -25 8 -8 3 -39 15 -69 26 l-55 20 45 -39z"/>
 </g>

</svg>